<svg width="166" height="140" viewBox="0 0 166 140" fill="none" xmlns="http://www.w3.org/2000/svg">
<path d="M85.985 0.0604547C85.2716 -0.0201516 84.5514 -0.0201516 83.838 0.0604547C81.7102 0.291202 79.6989 1.14406 78.0584 2.51124C76.4179 3.87842 75.2218 5.69854 74.6212 7.74154C74.0207 9.78455 74.0428 11.9587 74.6846 13.9893C75.3264 16.0199 76.5591 17.8156 78.227 19.1496L90.1526 28.766H28.8107C25.9398 28.766 23.1864 29.9001 21.1563 31.9189C19.1262 33.9376 17.9857 36.6756 17.9857 39.5306C17.9857 42.3855 19.1262 45.1235 21.1563 47.1423C23.1864 49.161 25.9398 50.2952 28.8107 50.2952H55.711L4.32812 91.5594C3.15122 92.472 2.16886 93.6086 1.43838 94.9028C0.707902 96.197 0.243921 97.6228 0.0735113 99.0973C-0.0968984 100.572 0.029676 102.065 0.445848 103.49C0.862021 104.916 1.55946 106.244 2.49747 107.398C3.43548 108.553 4.59527 109.51 5.90919 110.214C7.22311 110.918 8.66483 111.354 10.1502 111.498C11.6357 111.642 13.135 111.49 14.5608 111.052C15.9867 110.613 17.3104 109.897 18.4548 108.944L43.4606 88.9041C45.5354 117.394 72.2011 140 104.658 140C138.486 140 166 115.457 166 85.28C166 66.6394 155.5 49.3981 137.909 39.3332L91.7944 2.46454C90.144 1.10221 88.12 0.264614 85.985 0.0604547ZM104.658 53.8834C122.574 53.8834 137.133 65.9576 137.133 80.7948C137.133 95.632 122.574 107.706 104.658 107.706C86.7427 107.706 72.183 95.632 72.183 80.7948C72.183 65.9576 86.7608 53.8834 104.658 53.8834ZM104.658 61.0597C92.6965 61.0597 83.0081 69.0973 83.0081 79.0007C83.0081 88.9041 92.6965 96.9417 104.658 96.9417C116.62 96.9417 126.308 88.9041 126.308 79.0007C126.308 69.0973 116.62 61.0597 104.658 61.0597Z" fill="white"/>
</svg>
