<svg width="175" height="123" viewBox="0 0 175 123" fill="none" xmlns="http://www.w3.org/2000/svg">
<path fill-rule="evenodd" clip-rule="evenodd" d="M11.5981 12.052C18.7411 4.68727 28.4854 0.5 38.7027 0.5H42.9459C52.0379 0.5 60.7029 4.22633 67.0501 10.7706C73.3887 17.3061 76.9054 26.1162 76.9054 35.25C76.9054 39.9444 73.0998 43.75 68.4054 43.75C63.711 43.75 59.9054 39.9444 59.9054 35.25C59.9054 30.46 58.0574 25.9165 54.8469 22.6063C51.645 19.3049 47.3585 17.5 42.9459 17.5H38.7027C33.1647 17.5 27.799 19.7658 23.8013 23.8877C19.795 28.0184 17.5 33.6746 17.5 39.625V83.375C17.5 89.3254 19.795 94.9816 23.8013 99.1123C27.799 103.234 33.1647 105.5 38.7027 105.5H42.9459C47.3586 105.5 51.645 103.695 54.8469 100.394C58.0574 97.0835 59.9054 92.54 59.9054 87.75C59.9054 83.0556 63.711 79.25 68.4054 79.25C73.0998 79.25 76.9054 83.0556 76.9054 87.75C76.9054 96.8838 73.3887 105.694 67.0501 112.229C60.7029 118.774 52.0379 122.5 42.9459 122.5H38.7027C28.4854 122.5 18.7411 118.313 11.5981 110.948C4.46374 103.592 0.5 93.6692 0.5 83.375V39.625C0.5 29.3308 4.46375 19.408 11.5981 12.052ZM120.145 9.2897C124.817 9.74288 128.238 13.8981 127.785 18.5706L126.143 35.5H143.009L144.81 16.9294C145.263 12.257 149.418 8.83652 154.091 9.2897C158.763 9.74288 162.184 13.8981 161.731 18.5706L160.089 35.5H166C170.694 35.5 174.5 39.3056 174.5 44C174.5 48.6944 170.694 52.5 166 52.5H158.44L156.694 70.5H161.757C166.451 70.5 170.257 74.3056 170.257 79C170.257 83.6944 166.451 87.5 161.757 87.5H155.045L153.244 106.071C152.791 110.743 148.636 114.163 143.963 113.71C139.291 113.257 135.87 109.102 136.323 104.429L137.965 87.5H121.099L119.298 106.071C118.845 110.743 114.69 114.163 110.017 113.71C105.345 113.257 101.924 109.102 102.378 104.429L104.019 87.5H98.1081C93.4137 87.5 89.6081 83.6944 89.6081 79C89.6081 74.3056 93.4137 70.5 98.1081 70.5H105.668L107.414 52.5H102.351C97.6569 52.5 93.8513 48.6944 93.8513 44C93.8513 39.3056 97.6569 35.5 102.351 35.5H109.063L110.864 16.9294C111.317 12.257 115.472 8.83652 120.145 9.2897ZM124.494 52.5L122.748 70.5H139.614L141.36 52.5H124.494Z" fill="white"/>
</svg>
