<svg width="139" height="157" viewBox="0 0 139 157" fill="none" xmlns="http://www.w3.org/2000/svg">
<path d="M137.979 109.093V36.4722L75.0417 0.161516V28.0796L99.7325 42.2813C100.701 42.765 100.701 44.2179 99.7325 44.7024L70.3616 61.6468C69.554 62.1313 68.425 62.1313 67.6182 61.6468L38.2465 44.5409C37.279 44.0572 37.279 42.6043 38.2465 42.1198L62.9381 27.9188V0L0 36.3106V109.093L24.2071 95.214V66.6499C24.2071 65.6816 25.3361 64.8748 26.3045 65.5201L55.6754 82.4652C56.483 82.949 57.1282 83.9173 57.1282 84.8856V118.775C57.1282 119.743 55.9984 120.55 55.0301 119.905L30.3392 105.704L6.13214 119.582L69.0703 155.892L132.008 119.582L107.801 105.704L83.1105 119.905C82.3037 120.389 81.0123 119.743 81.0123 118.775V84.8856C81.0123 83.9173 81.4969 82.949 82.4644 82.4652L111.836 65.5201C112.643 65.0363 113.933 65.6816 113.933 66.6499V95.214L137.979 109.093Z" fill="white"/>
<path d="M68.9087 156.054L131.847 119.744L107.64 105.865L82.9489 120.066C82.1421 120.551 80.8507 119.905 80.8507 118.937V85.0471C80.8507 84.0788 81.3353 83.1105 82.3036 82.6267L111.675 65.6816C112.481 65.1978 113.773 65.8431 113.773 66.8114V95.3755L137.979 109.254V36.4722L68.9087 76.333V156.054Z" fill="white"/>
<path d="M74.8802 0V27.9181L99.571 42.1198C100.539 42.6035 100.539 44.0564 99.571 44.5409L70.2001 61.4853C69.3933 61.9698 68.2635 61.9698 67.4567 61.4853L38.2465 44.5409C37.279 44.0572 37.279 42.6043 38.2465 42.1198L62.9381 27.9188V0L0 36.3106L69.0703 76.1715L138.141 36.3106L74.8802 0Z" fill="white"/>
</svg>
