<svg width="274" height="46" viewBox="0 0 274 46" fill="none" xmlns="http://www.w3.org/2000/svg">
<g clip-path="url(#clip0_700_342)">
<path d="M44.0568 16.7375V44.0372H20.9667V37.7474H37.7639V16.7375H44.0568Z" fill="white"/>
<path d="M0 22.9198V0.0020752H27.3064V6.29196H6.29291V22.9198H0Z" fill="white"/>
<path d="M16.7827 44.0388V27.269H0V33.5589H10.4898V44.0388H16.7827Z" fill="white"/>
<path d="M44.0649 14.6425V0H29.4073V6.28988H37.772V14.6425H44.0649Z" fill="white"/>
<path d="M21.8703 33.6041H20.9699V27.2642H22.0349C23.4321 27.2642 24.7721 26.7094 25.7601 25.7219C26.7481 24.7344 27.3032 23.395 27.3032 21.9984C27.3023 20.6023 26.7469 19.2636 25.7591 18.2765C24.7712 17.2894 23.4317 16.7347 22.0349 16.7343H16.7746V23.0742H10.4172V10.4202H22.0187C23.5501 10.4229 25.0659 10.7282 26.4788 11.3186C27.8917 11.9089 29.1739 12.7726 30.2516 13.8601C31.3294 14.9475 32.1814 16.2371 32.7587 17.6549C33.336 19.0726 33.6271 20.5904 33.6154 22.121C33.5557 28.5093 28.2552 33.6041 21.8703 33.6041Z" fill="white"/>
<path d="M63.4197 41.9761C64.0061 42.353 64.6895 42.5514 65.3866 42.547C66.4322 42.547 67.3939 41.9503 67.3939 40.8746C67.3939 40.2101 67.0099 39.7182 66.0337 39.2005C64.8509 38.5892 64.191 37.8732 64.191 36.9023C64.191 35.3088 65.6206 34.2863 67.3261 34.2863C68.233 34.2863 68.9074 34.5395 69.2237 34.7508L68.8106 35.654C68.3275 35.3694 67.7755 35.2226 67.2148 35.2298C66.0611 35.2298 65.3737 35.9604 65.3737 36.691C65.3737 37.4216 65.84 37.8328 66.8163 38.3505C67.9587 38.9344 68.5767 39.6408 68.5767 40.7407C68.5767 42.2825 67.3261 43.5034 65.235 43.5034C64.3007 43.4905 63.3923 43.2115 63.0082 42.8793L63.4197 41.9761Z" fill="white"/>
<path d="M72.467 43.5179C70.8034 43.5179 69.8691 42.3212 69.8691 40.8746C69.8691 38.7489 71.3956 36.7974 73.5545 36.7974C75.3553 36.7974 76.1669 38.1118 76.1669 39.4666C76.1669 41.4584 74.7147 43.5179 72.4815 43.5179H72.467ZM72.6187 42.6406C73.966 42.6406 74.9842 40.9665 74.9842 39.4666C74.9842 38.7231 74.6259 37.6732 73.4303 37.6732C72.0007 37.6732 71.0519 39.3602 71.0519 40.8342C71.0519 41.8842 71.657 42.6406 72.6058 42.6406H72.6187Z" fill="white"/>
<path d="M77.1221 43.3712L78.2096 37.8054H77.3286L77.49 36.9426H78.3823L78.4387 36.5974C78.6001 35.7072 78.9325 34.8847 79.5247 34.3669C79.9664 33.9933 80.5273 33.7902 81.106 33.7944C81.4226 33.7756 81.739 33.8349 82.0273 33.967L81.7788 34.8443C81.565 34.7592 81.336 34.7186 81.106 34.725C80.1975 34.725 79.7586 35.5749 79.565 36.6378L79.5101 36.9426H80.9946L80.8155 37.8054H79.344L78.2516 43.3712H77.1221Z" fill="white"/>
<path d="M83.8652 35.4023L83.5635 36.9426H85.1577L84.9802 37.8054H83.3844L82.7793 40.9278C82.695 41.2623 82.649 41.6053 82.6421 41.9503C82.6421 42.3357 82.8341 42.5744 83.2746 42.5744C83.4548 42.5796 83.6348 42.5617 83.8103 42.5212L83.7555 43.384C83.4709 43.4717 83.1738 43.5121 82.8761 43.5034C81.8724 43.5034 81.4739 42.9196 81.4739 42.2551C81.4825 41.8526 81.5328 41.4521 81.624 41.06L82.2694 37.8054H81.3174L81.4787 36.9426H82.4275L82.6615 35.7604L83.8652 35.4023Z" fill="white"/>
<path d="M86.9649 36.9426L87.1989 40.5552C87.2409 41.13 87.2501 41.7067 87.2263 42.2825H87.2682C87.4787 41.7308 87.7222 41.1922 87.9976 40.6697L89.9629 36.9377H90.9665L91.3796 40.6036C91.449 41.3084 91.4893 41.8519 91.4893 42.2777H91.5168C91.6959 41.76 91.875 41.2681 92.1493 40.6439L93.9516 36.9345H95.1053L91.8201 43.3631H90.7616L90.3211 39.8698C90.255 39.3013 90.2227 38.7293 90.2243 38.157H90.192C89.9177 38.7812 89.7241 39.2585 89.4223 39.8295L87.5103 43.3631H86.4518L85.8354 36.9426H86.9649Z" fill="white"/>
<path d="M99.2796 43.3712C99.3007 42.8157 99.3508 42.2618 99.4296 41.7116H99.4022C98.6745 43.0518 97.7531 43.5179 96.8205 43.5179C95.6378 43.5179 94.91 42.6148 94.91 41.3923C94.91 39.1473 96.614 36.7974 99.5152 36.7974C100.119 36.7997 100.72 36.8799 101.303 37.0361L100.616 40.3956C100.419 41.3749 100.327 42.3724 100.341 43.3712H99.2796ZM100.022 37.7667C99.7624 37.6952 99.4936 37.6636 99.2247 37.6732C97.5047 37.6732 96.0879 39.4005 96.0879 41.1923C96.0879 41.91 96.3493 42.6148 97.2303 42.6148C98.1791 42.6148 99.307 41.4181 99.6362 39.7117L100.022 37.7667Z" fill="white"/>
<path d="M102.042 43.3712L102.849 39.2279C103.01 38.3909 103.11 37.5409 103.193 36.9426H104.196C104.141 37.3942 104.086 37.8457 104.004 38.3376H104.044C104.485 37.4603 105.187 36.7974 106.081 36.7974C106.189 36.7994 106.297 36.808 106.404 36.8232L106.184 37.9119C106.077 37.8941 105.969 37.8855 105.861 37.8861C104.885 37.8861 104.004 39.0408 103.715 40.5294L103.165 43.3712H102.042Z" fill="white"/>
<path d="M111.131 42.9986C110.447 43.3364 109.693 43.5093 108.93 43.5034C107.172 43.5034 106.4 42.3486 106.4 40.9229C106.4 38.9876 107.886 36.7926 110.031 36.7926C111.296 36.7926 111.983 37.5216 111.983 38.4521C111.983 40.1391 110.018 40.5778 107.556 40.5375C107.502 40.9453 107.549 41.36 107.693 41.7455C107.954 42.3309 108.492 42.6099 109.179 42.6099C109.802 42.6115 110.415 42.4609 110.967 42.1712L111.131 42.9986ZM110.884 38.4699C110.884 37.9522 110.471 37.6635 109.866 37.6635C108.78 37.6635 107.969 38.686 107.693 39.6956C109.481 39.7214 110.884 39.4827 110.884 38.486V38.4699Z" fill="white"/>
<path d="M122.141 33.9412L120.671 41.3261C120.542 42.0023 120.45 42.685 120.395 43.3711H119.349L119.528 42.0954H119.501C118.896 43.0131 118.049 43.5179 117.095 43.5179C115.815 43.5179 115.115 42.4938 115.115 41.1794C115.115 38.8956 116.876 36.7974 119.227 36.7974C119.632 36.7944 120.034 36.8711 120.409 37.0232L121 33.9412H122.141ZM120.216 37.9522C119.89 37.7527 119.511 37.6555 119.13 37.6732C117.536 37.6732 116.298 39.3198 116.298 41.0342C116.298 41.8035 116.572 42.6147 117.548 42.6147C118.429 42.6147 119.485 41.6471 119.777 40.1956L120.216 37.9522Z" fill="white"/>
<path d="M127.08 42.9986C126.396 43.3366 125.643 43.5095 124.881 43.5034C123.12 43.5034 122.35 42.3486 122.35 40.9229C122.35 38.9876 123.835 36.7926 125.981 36.7926C127.246 36.7926 127.933 37.5216 127.933 38.4521C127.933 40.1391 125.966 40.5778 123.506 40.5375C123.452 40.9453 123.499 41.3601 123.643 41.7455C123.904 42.3309 124.44 42.6099 125.127 42.6099C125.75 42.6117 126.364 42.4611 126.915 42.1712L127.08 42.9986ZM126.833 38.4699C126.833 37.9522 126.42 37.6635 125.816 37.6635C124.729 37.6635 123.917 38.686 123.643 39.6956C125.431 39.7214 126.833 39.4827 126.833 38.486V38.4699Z" fill="white"/>
<path d="M129.996 36.9426L130.573 40.6084C130.668 41.339 130.765 41.8438 130.778 42.189H130.82C130.972 41.8438 131.143 41.4181 131.535 40.6875L133.557 36.9426H134.807L131.109 43.3711H129.996L128.84 36.9426H129.996Z" fill="white"/>
<path d="M139.456 42.9986C138.772 43.3364 138.018 43.5093 137.255 43.5034C135.495 43.5034 134.725 42.3486 134.725 40.9229C134.725 38.9876 136.209 36.7926 138.355 36.7926C139.62 36.7926 140.308 37.5216 140.308 38.4521C140.308 40.1391 138.341 40.5778 135.88 40.5375C135.826 40.9453 135.873 41.3601 136.017 41.7455C136.279 42.3309 136.814 42.6099 137.502 42.6099C138.125 42.6117 138.738 42.4611 139.29 42.1712L139.456 42.9986ZM139.207 38.4699C139.207 37.9522 138.794 37.6635 138.191 37.6635C137.103 37.6635 136.292 38.686 136.017 39.6956C137.805 39.7214 139.207 39.4827 139.207 38.486V38.4699Z" fill="white"/>
<path d="M140.898 43.3711L142.754 33.9412H143.896L142.039 43.3711H140.898Z" fill="white"/>
<path d="M146.728 43.5179C145.065 43.5179 144.129 42.3212 144.129 40.8746C144.129 38.7489 145.655 36.7974 147.814 36.7974C149.617 36.7974 150.427 38.1118 150.427 39.4666C150.427 41.4584 148.974 43.5179 146.743 43.5179H146.728ZM146.88 42.6406C148.227 42.6406 149.245 40.9665 149.245 39.4666C149.245 38.7231 148.887 37.6732 147.692 37.6732C146.26 37.6732 145.312 39.3602 145.312 40.8342C145.312 41.8842 145.917 42.6406 146.865 42.6406H146.88Z" fill="white"/>
<path d="M150.619 46.0016L151.953 39.2279C152.105 38.457 152.242 37.5812 152.324 36.9297H153.37L153.191 38.1522H153.218C153.809 37.3022 154.69 36.7974 155.611 36.7974C157.041 36.7974 157.646 37.9393 157.646 39.1215C157.646 41.3923 155.968 43.5179 153.754 43.5179C153.053 43.5179 152.585 43.3712 152.324 43.2244H152.297L151.761 46.0016H150.619ZM152.489 42.2922C152.865 42.547 153.314 42.6726 153.768 42.6502C155.24 42.6502 156.463 40.8842 156.463 39.1973C156.463 38.5199 156.161 37.7103 155.185 37.7103C154.291 37.7103 153.176 38.6925 152.832 40.4988L152.489 42.2922Z" fill="white"/>
<path d="M158.428 43.3712L159.322 38.815C159.461 38.0989 159.556 37.4748 159.625 36.9426H160.629L160.45 38.1522H160.492C161.11 37.249 161.944 36.7974 162.828 36.7974C163.847 36.7974 164.327 37.4216 164.382 38.2312C164.974 37.3022 165.834 36.8103 166.817 36.7974C167.587 36.7974 168.44 37.2813 168.44 38.4828C168.434 38.8487 168.397 39.2135 168.329 39.573L167.587 43.3712H166.473L167.188 39.6617C167.248 39.3872 167.281 39.1073 167.285 38.8263C167.285 38.1489 167.024 37.7103 166.281 37.7103C165.455 37.7103 164.466 38.6392 164.184 40.0746L163.551 43.3679H162.451L163.195 39.5956C163.247 39.3376 163.275 39.0751 163.277 38.8118C163.277 38.2683 163.125 37.7103 162.286 37.7103C161.447 37.7103 160.416 38.7731 160.155 40.1407L159.537 43.3663L158.428 43.3712Z" fill="white"/>
<path d="M174.338 42.9986C173.654 43.3364 172.9 43.5093 172.137 43.5034C170.378 43.5034 169.607 42.3486 169.607 40.9229C169.607 38.9876 171.093 36.7926 173.238 36.7926C174.503 36.7926 175.19 37.5216 175.19 38.4521C175.19 40.1391 173.225 40.5778 170.762 40.5375C170.709 40.9453 170.756 41.36 170.899 41.7455C171.161 42.3309 171.706 42.6099 172.386 42.6099C173.008 42.6115 173.622 42.4609 174.173 42.1712L174.338 42.9986ZM174.098 38.4699C174.098 37.9522 173.686 37.6635 173.081 37.6635C171.995 37.6635 171.183 38.686 170.908 39.6956C172.695 39.7214 174.098 39.4827 174.098 38.486V38.4699Z" fill="white"/>
<path d="M175.781 43.3712L176.662 38.815C176.812 38.0989 176.908 37.4748 176.984 36.9426H178.015L177.836 38.2054H177.864C178.469 37.3022 179.363 36.7974 180.339 36.7974C181.123 36.7974 182.017 37.2345 182.017 38.5715C182.007 38.9197 181.965 39.2662 181.893 39.6069L181.15 43.3663H180.021L180.75 39.6472C180.799 39.3756 180.826 39.1006 180.833 38.8247C180.833 38.1796 180.571 37.7087 179.787 37.7087C178.98 37.7087 177.822 38.6505 177.518 40.2456L176.913 43.3663L175.781 43.3712Z" fill="white"/>
<path d="M186.052 35.4023L185.749 36.9426H187.345L187.166 37.8054H185.572L184.967 40.9278C184.882 41.2623 184.835 41.6053 184.828 41.9503C184.828 42.3357 185.021 42.5744 185.46 42.5744C185.641 42.5795 185.821 42.5616 185.998 42.5212L185.943 43.384C185.658 43.4719 185.36 43.5122 185.062 43.5034C184.058 43.5034 183.66 42.9196 183.66 42.2551C183.668 41.8525 183.719 41.4519 183.811 41.06L184.457 37.8054H183.508L183.669 36.9426H184.618L184.85 35.7604L186.052 35.4023Z" fill="white"/>
<path d="M194.495 43.1051C193.89 43.3787 193.233 43.5148 192.57 43.5034C190.85 43.5034 190.012 42.389 190.012 41.0197C190.012 38.8296 191.689 36.7974 194.082 36.7974C194.561 36.7907 195.035 36.8904 195.471 37.0894L195.148 37.9522C194.794 37.791 194.408 37.7095 194.019 37.7135C192.286 37.7135 191.2 39.3602 191.2 40.8746C191.2 41.9229 191.763 42.6003 192.849 42.6003C193.383 42.5983 193.91 42.4759 194.39 42.2422L194.495 43.1051Z" fill="white"/>
<path d="M200.407 42.9986C199.723 43.3362 198.97 43.5091 198.208 43.5034C196.447 43.5034 195.677 42.3486 195.677 40.9229C195.677 38.9876 197.162 36.7926 199.306 36.7926C200.571 36.7926 201.259 37.5216 201.259 38.4521C201.259 40.1391 199.293 40.5778 196.831 40.5375C196.778 40.9454 196.825 41.3603 196.97 41.7455C197.23 42.3309 197.767 42.6099 198.454 42.6099C199.077 42.6115 199.691 42.4609 200.242 42.1712L200.407 42.9986ZM200.16 38.4699C200.16 37.9522 199.747 37.6635 199.142 37.6635C198.056 37.6635 197.244 38.686 196.97 39.6956C198.756 39.7214 200.16 39.4827 200.16 38.486V38.4699Z" fill="white"/>
<path d="M201.851 43.3712L202.73 38.815C202.882 38.0989 202.977 37.4748 203.053 36.9426H204.084L203.905 38.2054H203.932C204.538 37.3022 205.431 36.7974 206.408 36.7974C207.192 36.7974 208.086 37.2345 208.086 38.5715C208.076 38.9197 208.034 39.2662 207.962 39.6069L207.219 43.3663H206.09L206.819 39.6472C206.869 39.3757 206.896 39.1006 206.901 38.8247C206.901 38.1796 206.64 37.7087 205.856 37.7087C205.049 37.7087 203.891 38.6505 203.587 40.2456L202.98 43.3712H201.851Z" fill="white"/>
<path d="M212.121 35.4023L211.82 36.9426H213.414L213.235 37.8054H211.64L211.035 40.9278C210.951 41.2623 210.905 41.6053 210.898 41.9503C210.898 42.3357 211.09 42.5744 211.531 42.5744C211.711 42.5795 211.891 42.5616 212.066 42.5212L212.012 43.384C211.727 43.4717 211.43 43.5121 211.132 43.5034C210.127 43.5034 209.728 42.9196 209.728 42.2551C209.737 41.8525 209.788 41.4519 209.88 41.06L210.525 37.8054H209.577L209.738 36.9426H210.687L210.921 35.7604L212.121 35.4023Z" fill="white"/>
<path d="M218.227 42.9986C217.543 43.3364 216.789 43.5093 216.026 43.5034C214.266 43.5034 213.496 42.3486 213.496 40.9229C213.496 38.9876 214.981 36.7926 217.127 36.7926C218.392 36.7926 219.079 37.5216 219.079 38.4521C219.079 40.1391 217.112 40.5778 214.651 40.5375C214.597 40.9453 214.644 41.3601 214.789 41.7455C215.05 42.3309 215.586 42.6099 216.273 42.6099C216.896 42.6117 217.51 42.4611 218.061 42.1712L218.227 42.9986ZM217.987 38.4699C217.987 37.9522 217.575 37.6635 216.97 37.6635C215.882 37.6635 215.072 38.686 214.797 39.6956C216.584 39.7214 217.987 39.4827 217.987 38.486V38.4699Z" fill="white"/>
<path d="M219.655 43.3712L220.462 39.2279C220.623 38.3909 220.723 37.5409 220.806 36.9426H221.809C221.755 37.3942 221.7 37.8457 221.617 38.3376H221.659C222.098 37.4603 222.8 36.7974 223.694 36.7974C223.802 36.7993 223.91 36.8079 224.017 36.8232L223.797 37.9119C223.691 37.8941 223.583 37.8855 223.475 37.8861C222.506 37.8861 221.619 39.0408 221.33 40.5294L220.78 43.3712H219.655Z" fill="white"/>
<path d="M81.4029 8.23975C81.4029 13.191 77.8175 16.1892 71.8828 16.1892H66.2466V23.0887H62.9872V0.290314H71.8861C77.8175 0.290314 81.4029 3.28849 81.4029 8.23975ZM78.1435 8.23975C78.1435 4.98192 75.9603 3.1256 71.7876 3.1256H66.2466V13.3539H71.7876C75.9603 13.3539 78.1435 11.4976 78.1435 8.23975Z" fill="white"/>
<path d="M102.165 5.83185V23.0887H100.667C100.474 23.0889 100.283 23.0511 100.105 22.9774C99.9269 22.9037 99.765 22.7956 99.6286 22.6593C99.4922 22.523 99.384 22.3611 99.3103 22.183C99.2366 22.0048 99.1988 21.8139 99.199 21.6211V20.4824C97.9275 22.2742 95.7766 23.2838 93.332 23.2838C88.8673 23.2838 85.9016 20.8405 85.9016 15.7586V5.83185H89.0303V15.4102C89.0303 18.7971 90.7245 20.4921 93.6902 20.4921C96.9497 20.4921 99.036 18.4729 99.036 14.7586V5.83185H102.165Z" fill="white"/>
<path d="M124.524 13.1587V23.0887H121.395V13.5168C121.395 10.1299 119.701 8.46714 116.734 8.46714C113.41 8.46714 111.259 10.4557 111.259 14.2022V23.0887H108.13V5.83184H109.66C110.049 5.83184 110.423 5.98646 110.698 6.2617C110.973 6.53693 111.128 6.91024 111.128 7.29948V8.43811C112.4 6.68017 114.615 5.66895 117.353 5.66895C121.558 5.67056 124.524 8.07684 124.524 13.1587Z" fill="white"/>
<path d="M140.038 22.0856C139.094 22.9 137.66 23.2903 136.258 23.2903C132.771 23.2903 130.783 21.3679 130.783 17.8826V8.40264H127.849V5.83185H130.783V0.275787H133.92V5.83185H140.003V8.41232H133.92V17.7665C133.92 19.6244 134.898 20.6695 136.624 20.6695C137.507 20.6794 138.368 20.3926 139.069 19.8551L140.038 22.0856Z" fill="white"/>
<path d="M141.636 14.4619C141.636 9.31549 145.45 5.66574 150.631 5.66574C155.813 5.66574 159.595 9.31549 159.595 14.4619C159.595 19.6083 155.814 23.2903 150.631 23.2903C145.449 23.2903 141.636 19.6099 141.636 14.4619ZM156.434 14.4619C156.434 10.7815 153.957 8.40265 150.625 8.40265C147.293 8.40265 144.79 10.7815 144.79 14.4619C144.79 18.1423 147.301 20.555 150.625 20.555C153.949 20.555 156.434 18.1439 156.434 14.4619Z" fill="white"/>
<path d="M250.337 2.89174C250.337 2.84658 250.337 2.79658 250.326 2.7482C250.326 2.79658 250.331 2.84496 250.337 2.89174Z" fill="white"/>
<path d="M183.133 8.40265C183.133 13.42 179.422 16.515 173.421 16.515H168.271V23.0887H164.034V0.290314H173.421C179.413 0.290314 183.133 3.353 183.133 8.40265ZM178.864 8.40265C178.864 5.53511 176.941 3.87393 173.226 3.87393H168.271V12.9281H173.226C176.934 12.9281 178.858 11.2702 178.858 8.40265H178.864Z" fill="white"/>
<path d="M203.434 5.698L195.285 24.4967C193.688 28.4383 191.472 29.6431 188.571 29.6431C186.845 29.6431 185.021 29.0576 183.911 28.0464L185.541 25.0499C186.352 25.8164 187.423 26.2469 188.539 26.2546C189.973 26.2546 190.821 25.5708 191.605 23.8451L191.898 23.1613L184.303 5.698H188.541L194.014 18.5729L199.523 5.70445L203.434 5.698Z" fill="white"/>
<path d="M235.09 13.1265V23.0887H231.008V13.6474C231.008 10.5525 229.574 9.05421 227.097 9.05421C224.425 9.05421 222.566 10.8138 222.566 14.2667V23.0887H218.492V13.6474C218.492 10.5525 217.059 9.05421 214.582 9.05421C211.876 9.05421 210.051 10.8138 210.051 14.2667V23.0887H205.977V5.69799H208.387C208.777 5.69842 209.15 5.85318 209.425 6.12833C209.701 6.40347 209.855 6.77652 209.856 7.16563V7.91397C211.158 6.34956 213.18 5.49478 215.558 5.49478C218.101 5.49478 220.22 6.43988 221.425 8.3978C222.827 6.60599 225.173 5.49478 227.944 5.49478C232.149 5.5093 235.09 7.88171 235.09 13.1265Z" fill="white"/>
<path d="M258.745 21.3679L260.311 18.2745C261.842 19.2841 264.183 20.0002 266.373 20.0002C268.954 20.0002 270.023 19.2841 270.023 18.0778C270.023 14.7554 259.267 17.8826 259.267 10.9444C259.267 7.65269 262.234 5.50284 266.926 5.50284C269.24 5.50284 271.881 6.05764 273.445 7.00112L271.88 10.0961C270.368 9.21259 268.643 8.76228 266.892 8.79454C264.415 8.79454 263.242 9.60094 263.242 10.7476C263.242 14.2667 273.998 11.1395 273.998 17.9487C273.998 21.2066 270.999 23.3226 266.11 23.3226C263.21 23.3226 260.311 22.4758 258.745 21.3679Z" fill="white"/>
<path d="M252.018 17.5262C251.179 18.8164 249.748 19.6422 247.915 19.8276C245.333 19.5567 243.549 18.002 243.105 15.6989H256.761C256.793 15.3086 256.827 14.8199 256.827 14.4941C256.827 9.0542 253.116 5.50284 248.026 5.50284C242.844 5.50284 239.031 9.21226 239.031 14.3958C239.031 19.3599 242.503 23.0081 247.928 23.3032C251.057 23.1322 253.537 21.8436 255.073 19.8309C255.605 19.1333 256.021 18.3553 256.307 17.5262H252.018ZM248.023 8.76068C250.695 8.76068 252.619 10.4864 252.945 12.9959H243.068C243.46 10.4541 245.383 8.76068 248.023 8.76068Z" fill="white"/>
</g>
<defs>
<clipPath id="clip0_700_342">
<rect width="274" height="46" fill="white"/>
</clipPath>
</defs>
</svg>
