<svg width="334" height="229" viewBox="0 0 334 229" fill="none" xmlns="http://www.w3.org/2000/svg">
<mask id="mask0_143_26165" style="mask-type:luminance" maskUnits="userSpaceOnUse" x="1" y="166" width="319" height="54">
<path d="M319.11 205.567C320.155 192.746 249.991 176.588 162.395 169.477C74.7991 162.366 2.94125 166.995 1.89644 179.816C0.851624 192.637 71.0155 208.795 158.612 215.906C246.208 223.017 318.065 218.388 319.11 205.567Z" fill="white"/>
</mask>
<g mask="url(#mask0_143_26165)">
<path d="M319.106 205.567C320.15 192.747 249.987 176.588 162.391 169.477C74.7945 162.366 2.93661 166.995 1.8918 179.816C0.846985 192.637 71.0109 208.795 158.607 215.906C246.203 223.017 318.061 218.388 319.106 205.567Z" stroke="#262626" stroke-width="3" stroke-miterlimit="10"/>
</g>
<path d="M319.106 205.567C320.15 192.746 249.987 176.588 162.391 169.477C74.7945 162.366 2.93661 166.995 1.8918 179.816C0.846985 192.637 71.0109 208.795 158.607 215.906C246.203 223.017 318.061 218.388 319.106 205.567Z" stroke="#262626" stroke-width="3" stroke-miterlimit="10"/>
<mask id="mask1_143_26165" style="mask-type:luminance" maskUnits="userSpaceOnUse" x="1" y="23" width="331" height="197">
<path d="M1.84888 179.814L14.6102 23.2129C13.8906 32.0415 47.7868 43.2672 105.972 51.9233C185.301 63.6993 279.738 66.1619 316.9 57.4312C326.806 55.0993 331.643 52.2125 331.904 49.0038L319.157 205.6C318.895 208.809 314.059 211.7 304.148 214.028C266.99 222.763 172.554 220.296 93.22 208.52C35.0255 199.882 1.12927 188.638 1.84888 179.814Z" fill="white"/>
</mask>
<g mask="url(#mask1_143_26165)">
<path d="M16.8531 171.387L29.6145 14.7903C-7.54329 23.5209 26.6379 40.1472 105.972 51.9233L93.2059 208.52C13.8765 196.744 -20.3093 180.117 16.8531 171.387Z" stroke="#262626" stroke-width="3" stroke-miterlimit="10"/>
<path d="M2.50293 182.276L15.2642 25.6802" stroke="#262626" stroke-width="3" stroke-miterlimit="10"/>
<path d="M29.8948 195.601L42.6561 38.9999" stroke="#262626" stroke-width="3" stroke-miterlimit="10"/>
<path d="M93.2058 208.52L105.972 51.9232C185.301 63.6993 279.738 66.1618 316.9 57.4312L304.134 214.028C266.976 222.763 172.54 220.296 93.2058 208.52Z" stroke="#262626" stroke-width="3" stroke-miterlimit="10"/>
<path d="M174.89 217.12L187.652 60.5234" stroke="#262626" stroke-width="3" stroke-miterlimit="10"/>
<path d="M250.561 219.097L263.322 62.5009" stroke="#262626" stroke-width="3" stroke-miterlimit="10"/>
<path d="M304.134 214.028L316.9 57.4314C354.063 48.6961 319.877 32.0696 240.547 20.2982L227.781 176.881C307.115 188.671 341.297 205.292 304.134 214.028Z" stroke="#262626" stroke-width="3" stroke-miterlimit="10"/>
<path d="M1.84888 179.814L14.6102 23.213C13.8906 32.0415 47.7868 43.2673 105.972 51.9233C185.301 63.6994 279.738 66.1619 316.9 57.4313C326.806 55.0994 331.643 52.2126 331.904 49.0039L319.157 205.6C318.895 208.809 314.059 211.7 304.148 214.028C266.99 222.763 172.554 220.296 93.22 208.52C35.0255 199.882 1.12927 188.638 1.84888 179.814Z" stroke="#262626" stroke-width="3" stroke-miterlimit="10"/>
</g>
<path d="M1.84888 179.814L14.6102 23.2131C13.8906 32.0417 47.7868 43.2675 105.972 51.9235C185.301 63.6996 279.738 66.1621 316.9 57.4315C326.806 55.0996 331.643 52.2128 331.904 49.0041L319.157 205.6C318.895 208.809 314.059 211.701 304.148 214.028C266.99 222.763 172.554 220.296 93.22 208.52C35.0255 199.882 1.12927 188.638 1.84888 179.814Z" stroke="#262626" stroke-width="3" stroke-miterlimit="10"/>
<mask id="mask2_143_26165" style="mask-type:luminance" maskUnits="userSpaceOnUse" x="1" y="14" width="29" height="166">
<path d="M14.6102 23.2129C14.8719 20.0042 19.7082 17.1175 29.6145 14.7903L16.8531 171.387C6.9469 173.719 2.11055 176.605 1.84888 179.814C5.67586 132.836 10.7832 70.196 14.6102 23.2129Z" fill="white"/>
</mask>
<g mask="url(#mask2_143_26165)">
<path d="M16.8531 171.387L29.6145 14.7905C-7.54329 23.5212 26.6379 40.1474 105.972 51.9235L93.2059 208.52C13.8765 196.744 -20.3093 180.117 16.8531 171.387Z" stroke="#262626" stroke-width="3" stroke-miterlimit="10"/>
<path d="M14.6104 23.2131C14.8721 20.0045 19.7085 17.1178 29.6147 14.7905L16.8534 171.387C6.94715 173.719 2.1108 176.606 1.84912 179.814C5.67611 132.836 10.7835 70.1962 14.6104 23.2131Z" stroke="#262626" stroke-width="3" stroke-miterlimit="10"/>
</g>
<path d="M14.6102 23.2131C14.8719 20.0045 19.7082 17.1178 29.6145 14.7905L16.8531 171.387C6.9469 173.719 2.11055 176.606 1.84888 179.814C5.67586 132.836 10.7832 70.1962 14.6102 23.2131Z" stroke="#262626" stroke-width="3" stroke-miterlimit="10"/>
<mask id="mask3_143_26165" style="mask-type:luminance" maskUnits="userSpaceOnUse" x="16" y="9" width="316" height="197">
<path d="M319.157 205.6C319.877 196.776 285.98 185.546 227.795 176.894C148.466 165.118 54.0296 162.651 16.8672 171.386L29.6284 14.7901C66.7908 6.05479 161.227 8.52174 240.561 20.2978C298.742 28.9305 332.615 40.1751 331.918 49.0036C328.077 95.9821 322.97 158.622 319.157 205.6Z" fill="white"/>
</mask>
<g mask="url(#mask3_143_26165)">
<path d="M304.134 214.028L316.9 57.4312C354.063 48.696 319.877 32.0695 240.547 20.298L227.781 176.88C307.115 188.671 341.297 205.292 304.134 214.028Z" stroke="#262626" stroke-width="3" stroke-miterlimit="10"/>
<path d="M318.484 203.133L331.245 46.5367" stroke="#262626" stroke-width="3" stroke-miterlimit="10"/>
<path d="M291.093 189.813L303.854 33.2169" stroke="#262626" stroke-width="3" stroke-miterlimit="10"/>
<path d="M227.781 176.88L240.547 20.2841C161.213 8.50797 66.7765 6.0408 29.6141 14.7761L16.8528 171.372C54.0152 162.651 148.452 165.118 227.781 176.88Z" stroke="#262626" stroke-width="3" stroke-miterlimit="10"/>
<path d="M146.097 168.29L158.858 11.6934" stroke="#262626" stroke-width="3" stroke-miterlimit="10"/>
<path d="M70.426 166.317L83.1873 9.716" stroke="#262626" stroke-width="3" stroke-miterlimit="10"/>
<path d="M319.157 205.6C319.877 196.776 285.98 185.546 227.795 176.894C148.466 165.118 54.0296 162.651 16.8672 171.387L29.6284 14.7903C66.7908 6.05498 161.227 8.52192 240.561 20.298C298.742 28.9307 332.615 40.1753 331.918 49.0038C328.077 95.9823 322.97 158.622 319.157 205.6Z" stroke="#262626" stroke-width="3" stroke-miterlimit="10"/>
</g>
<path d="M319.157 205.6C319.877 196.776 285.98 185.546 227.795 176.894C148.466 165.118 54.0296 162.651 16.8672 171.387L29.6284 14.7903C66.7908 6.05504 161.227 8.52199 240.561 20.2981C298.742 28.9308 332.615 40.1753 331.918 49.0039C328.077 95.9823 322.97 158.622 319.157 205.6Z" stroke="#262626" stroke-width="3" stroke-miterlimit="10"/>
<mask id="mask4_143_26165" style="mask-type:luminance" maskUnits="userSpaceOnUse" x="14" y="9" width="318" height="54">
<path d="M331.872 48.9659C332.916 36.145 262.753 19.9869 175.156 12.8758C87.5603 5.76472 15.7025 10.3934 14.6577 23.2143C13.6129 36.0353 83.7767 52.1934 171.373 59.3045C258.969 66.4156 330.827 61.7869 331.872 48.9659Z" fill="white"/>
</mask>
<g mask="url(#mask4_143_26165)">
<path d="M331.872 48.966C332.916 36.1451 262.753 19.987 175.156 12.8759C87.5603 5.76478 15.7025 10.3935 14.6577 23.2144C13.6129 36.0353 83.7767 52.1934 171.373 59.3045C258.969 66.4156 330.827 61.7869 331.872 48.966Z" stroke="#262626" stroke-width="3" stroke-miterlimit="10"/>
</g>
<path d="M331.872 48.9659C332.916 36.145 262.753 19.9869 175.156 12.8758C87.5603 5.76472 15.7025 10.3934 14.6577 23.2143C13.6129 36.0353 83.7767 52.1934 171.373 59.3045C258.969 66.4156 330.827 61.7869 331.872 48.9659Z" stroke="#262626" stroke-width="3" stroke-miterlimit="10"/>
</svg>
