<svg width="462" height="200" viewBox="0 0 462 200" fill="none" xmlns="http://www.w3.org/2000/svg">
<path d="M461.529 156.129H460.388C308.021 155.357 153.507 155.357 1.14068 156.129H0L0.479276 155.099C12.7008 129.055 26.7388 104.913 37.6088 86.7871C47.5442 70.2186 54.3451 52.059 60.9256 34.4983C65.1432 23.2401 69.5047 11.6032 74.6665 0.421707L74.8581 0H75.3374C178.482 0.258809 283.075 0.258809 386.22 0H386.699L386.891 0.421707C392.053 11.608 396.414 23.2449 400.632 34.4983C407.207 52.059 414.008 70.2138 423.949 86.7871C434.819 104.913 448.871 129.055 461.078 155.099L461.529 156.129ZM230.762 154.106C307.101 154.106 383.445 154.298 459.257 154.681C447.179 129.088 433.376 105.383 422.683 87.5302C412.676 70.8418 405.851 52.6196 399.251 35.0014C395.096 23.911 390.802 12.4515 385.745 1.4521C282.898 1.70612 178.631 1.70612 75.7831 1.4521C70.7268 12.4755 66.4324 23.9206 62.2771 35.0014C55.6775 52.6244 48.8574 70.8465 38.8453 87.5302C28.1383 105.383 14.3495 129.088 2.27176 154.681C78.0789 154.274 154.423 154.082 230.762 154.082V154.106Z" fill="#262626"/>
<path d="M230.762 158.353C192.77 158.353 154.964 152.16 118.405 146.17C83.6002 140.471 47.6114 134.576 11.5842 134.053V132.615C47.7217 133.138 83.7632 139.042 118.616 144.751C155.123 150.732 192.87 156.915 230.743 156.915C268.615 156.915 306.368 150.732 342.893 144.751C377.746 139.042 413.788 133.138 449.921 132.615L449.945 134.053C413.917 134.576 377.929 140.471 343.124 146.17C306.564 152.16 268.754 158.353 230.762 158.353Z" fill="#262626"/>
<path d="M230.762 180.673C188.494 180.673 148.935 163.577 110.674 147.042C81.7549 134.547 51.848 121.64 21.021 116.2L21.2702 114.787C52.265 120.236 82.2485 133.191 111.245 145.724C149.371 162.197 188.792 179.235 230.762 179.235C272.732 179.235 312.157 162.197 350.289 145.724C379.285 133.191 409.268 120.231 440.258 114.787L440.507 116.2C409.685 121.621 379.759 134.561 350.859 147.023C312.593 163.577 273.029 180.673 230.762 180.673Z" fill="#262626"/>
<path d="M230.762 198.147C197.438 198.147 165.183 178.42 139.264 162.57C131.384 157.749 123.447 152.702 115.779 147.818C88.6999 130.564 60.7054 112.725 29.6387 101.884L30.1179 100.528C61.338 111.422 89.4092 129.308 116.555 146.606C124.224 151.485 132.132 156.531 140.002 161.343C165.763 177.102 197.826 196.709 230.748 196.709C263.669 196.709 295.738 177.102 321.499 161.343C329.368 156.55 337.286 151.485 344.945 146.606C372.091 129.289 400.177 111.422 431.397 100.533L431.876 101.889C400.809 112.73 372.815 130.569 345.736 147.823C338.067 152.707 330.15 157.754 322.251 162.575C296.365 178.42 264.091 198.147 230.762 198.147Z" fill="#262626"/>
<path d="M230.422 196.278C198.991 196.278 169.673 177.461 144.631 159.805C134.816 152.884 125.062 145.518 115.63 138.396C91.2687 119.991 66.0779 100.964 37.6377 87.9949L38.2368 86.6865C66.816 99.718 92.0738 118.798 116.498 137.245C125.92 144.363 135.669 151.72 145.46 158.631C170.383 176.22 199.619 194.984 230.772 194.84C262.298 194.701 291.328 176.076 316.083 158.631C325.884 151.72 335.628 144.358 345.05 137.241C369.493 118.793 394.727 99.7228 423.306 86.6865L423.906 87.9949C395.465 100.964 370.275 119.992 345.918 138.391C336.486 145.513 326.747 152.879 316.907 159.805C291.985 177.38 262.749 196.134 230.791 196.278H230.422Z" fill="#262626"/>
<path d="M230.192 169.731C198.861 169.731 167.545 150.291 144.641 136.076C134.777 129.951 124.933 123.471 115.405 117.207C93.0324 102.484 69.8737 87.257 45.0664 75.7256L45.675 74.4219C70.5974 85.9964 93.78 101.261 116.196 116.004C125.709 122.268 135.549 128.738 145.398 134.854C168.154 148.978 199.269 168.293 230.187 168.293H230.752C260.189 168.068 289.066 151.652 316.121 134.859C325.97 128.743 335.805 122.273 345.319 116.009C367.734 101.261 390.912 86.0059 415.844 74.4266L416.453 75.7303C391.617 87.2665 368.482 102.488 346.109 117.212C336.591 123.476 326.747 129.956 316.874 136.081C289.641 152.98 260.563 169.501 230.757 169.731H230.192Z" fill="#262626"/>
<path d="M230.762 129.611C188.135 129.611 147.919 108.484 109.026 88.0526C89.3755 77.7386 70.8419 67.995 51.9919 60.7819L52.5047 59.4397C71.4314 66.6816 90.0129 76.4445 109.687 86.7585C148.427 107.109 188.485 128.154 230.757 128.154C273.029 128.154 313.097 107.109 351.842 86.7538C371.492 76.4206 390.097 66.6625 409.014 59.4351L409.527 60.7769C390.692 67.9661 372.144 77.729 352.493 88.043C313.619 108.479 273.389 129.611 230.762 129.611Z" fill="#262626"/>
<path d="M230.762 87.1132C189.424 87.1132 149.668 73.7222 111.226 60.753C93.9716 54.9346 76.1138 48.9197 58.4573 44.2468L58.8263 42.8569C76.5308 47.5443 94.403 53.564 111.686 59.392C150.028 72.3085 189.659 85.6611 230.762 85.6611C271.865 85.6611 311.506 72.3035 349.848 59.387C367.13 53.5638 385.003 47.5443 402.702 42.8569L403.071 44.2468C385.415 48.9197 367.566 54.9347 350.303 60.7484C311.855 73.7271 272.099 87.1132 230.762 87.1132Z" fill="#262626"/>
<path d="M230.762 48.9964C189.679 48.9964 149.142 42.018 109.942 35.2649C95.0839 32.7104 79.7471 30.0648 64.4822 27.817L64.6882 26.3792C79.9532 28.627 95.3236 31.2774 110.186 33.8367C149.328 40.5753 189.798 47.5441 230.762 47.5441C271.726 47.5441 312.201 40.5753 351.339 33.8367C366.196 31.2774 381.576 28.627 396.836 26.3792L397.047 27.817C381.801 30.0648 366.441 32.7105 351.583 35.2699C312.383 42.0181 271.855 48.9964 230.762 48.9964Z" fill="#262626"/>
<path d="M230.762 19.6119C185.657 19.6119 140.14 17.0189 96.1189 14.5123C87.4536 14.0171 78.7787 13.5299 70.0942 13.0506L70.1709 11.6128C78.8618 12.0857 87.5383 12.5743 96.2004 13.0792C140.203 15.581 185.7 18.1741 230.762 18.1741C275.824 18.1741 321.345 15.5811 365.348 13.0745C374.01 12.5792 382.68 12.0921 391.358 11.6128L391.435 13.0506C382.753 13.5235 374.085 14.0107 365.429 14.5123C321.403 17.0189 275.876 19.6119 230.762 19.6119Z" fill="#262626"/>
<path d="M413.788 155.515C409.336 143.562 405.032 134.47 397.354 126.092L396.28 124.923C391.583 119.809 387.528 115.395 384.15 108.953C373.605 88.867 368.971 65.5934 364.499 43.0914C361.681 29.0006 358.748 14.4354 354.434 1.00608L355.8 0.565186C360.143 14.0712 363.061 28.6796 365.865 42.8087C370.342 65.2148 374.971 88.383 385.405 108.283C388.693 114.561 392.69 118.913 397.32 123.95L398.398 125.119C406.23 133.674 410.601 142.896 415.116 155.012L413.788 155.515Z" fill="#262626"/>
<path d="M367.864 155.578C364.25 145.034 364.25 145.034 357.799 143.984L355.494 143.591C354.482 143.409 353.653 143.304 352.92 143.212C349.287 142.733 348.42 142.465 345.659 136.905C339.682 124.866 338.144 108.307 336.783 93.6986C336.303 88.7142 335.877 83.9981 335.292 79.6798C334.578 74.4078 333.854 69.0733 333.203 63.8972C330.49 43.202 327.691 21.8022 323.344 1.03521L324.753 0.74292C329.11 21.5627 331.913 42.9911 334.626 63.7102C335.302 68.8864 336.002 74.2542 336.716 79.4879C337.305 83.8349 337.746 88.5607 338.211 93.5643C339.563 108.048 341.087 124.468 346.948 136.268C349.46 141.329 349.948 141.386 353.102 141.784C353.85 141.88 354.698 141.986 355.748 142.172C356.586 142.326 357.344 142.451 358.034 142.566C365.146 143.74 365.458 144.09 369.239 155.113L367.864 155.578Z" fill="#262626"/>
<path d="M310.911 168.59C309.804 168.59 308.898 167.243 307.159 164.277C304.571 159.877 304.365 152.295 304.178 145.628C304.111 143.179 304.043 140.864 303.861 138.976C302.423 124.003 301.307 108.748 300.224 93.9908L299.855 88.9151C299.535 84.3748 299.206 79.833 298.867 75.2895C297.118 50.9087 295.311 25.694 292.229 1.03045L293.667 0.848145C296.758 25.55 298.565 50.7841 300.315 75.1888C300.634 79.726 300.963 84.2663 301.302 88.8098L301.676 93.8853C302.754 108.633 303.871 123.883 305.309 138.842C305.496 140.759 305.558 143.112 305.63 145.59C305.807 152.093 306.013 159.489 308.414 163.548C309.004 164.559 310.37 166.903 310.916 167.133C311.295 166.846 311.942 165.12 312.57 163.448C312.881 162.623 313.236 161.689 313.648 160.639L313.83 160.16C317.027 151.897 319.193 148.499 321.063 148.81C322.467 149.04 323.152 151.02 323.349 155.434L321.911 155.496C321.69 150.507 320.837 150.224 320.832 150.224C320.828 150.224 319.265 150.1 315.172 160.672L314.985 161.152C314.573 162.192 314.223 163.122 313.916 163.936C312.752 167.047 312.215 168.461 311.041 168.561L310.911 168.59Z" fill="#262626"/>
<path d="M270.331 192.156L269.574 190.493C267.709 186.4 267.695 180.793 267.681 175.837C267.681 174.145 267.681 172.544 267.599 171.092C266.847 156.522 266.358 141.698 265.883 127.368L265.634 119.819C265.299 109.845 264.992 99.6894 264.676 89.9074C263.794 60.753 262.883 30.6017 261.115 1.00164L262.552 0.915283C264.321 30.5393 265.232 60.6954 266.113 89.8594C266.411 99.6654 266.717 109.802 267.072 119.766L267.321 127.32C267.8 141.645 268.28 156.46 269.032 171.015C269.109 172.506 269.114 174.126 269.118 175.837C269.118 179.858 269.118 184.33 270.163 187.91C271.601 182.599 271.908 176.915 272.21 171.394C272.574 164.823 272.948 158.032 275.186 151.787L276.006 149.496L277.391 155.41L275.991 155.736L275.756 154.744C274.271 160.112 273.954 165.877 273.648 171.475C273.298 177.807 272.938 184.353 270.911 190.421L270.331 192.156Z" fill="#262626"/>
<path d="M231.481 0.843506H230.043V199.753H231.481V0.843506Z" fill="#262626"/>
<path d="M191.313 192.492L190.618 190.421C188.59 184.353 188.221 177.807 187.881 171.475C187.574 165.877 187.258 160.112 185.772 154.744L185.537 155.736L184.138 155.41L185.523 149.496L186.343 151.787C188.581 158.017 188.955 164.823 189.319 171.394C189.616 176.839 189.928 182.417 191.308 187.689C195.262 173.623 194.898 156.407 194.548 139.728C194.394 132.644 194.255 125.959 194.457 119.771C194.768 110.401 195.056 100.868 195.334 91.652C196.225 61.8985 197.155 31.1336 198.957 0.915283L200.395 1.00164C198.588 31.196 197.663 61.956 196.767 91.6951C196.494 100.916 196.206 110.444 195.895 119.819C195.693 125.968 195.832 132.635 195.981 139.695C196.355 157.428 196.743 175.722 191.984 190.416L191.313 192.492Z" fill="#262626"/>
<path d="M150.665 168.695H150.569C148.906 168.595 148.12 166.088 147.028 162.618C146.668 161.463 146.294 160.275 145.868 159.12C143.471 152.664 141.66 150.425 141.041 150.521C141.041 150.521 140.083 150.699 139.604 155.568L138.166 155.429C138.573 151.235 139.397 149.285 140.831 149.098C141.502 149.007 143.543 148.748 147.186 158.626C147.627 159.81 148.005 161.022 148.37 162.187C149.002 164.19 149.951 167.219 150.627 167.262C150.699 167.262 151.451 167.205 153.066 163.639C155.137 159.076 155.563 150.497 155.875 144.238C155.98 142.129 156.072 140.308 156.206 138.865C157.461 125.445 158.497 111.892 159.527 98.0165C160.006 91.4936 160.486 84.8604 160.965 78.438C162.777 52.9741 164.646 26.638 167.871 0.87207L169.309 1.05414C166.093 26.7817 164.224 53.094 162.417 78.5436C161.938 84.9611 161.487 91.5991 160.979 98.1221C159.949 112.021 158.914 125.575 157.658 138.999C157.524 140.413 157.433 142.215 157.327 144.31C157.011 150.684 156.575 159.421 154.394 164.233C152.99 167.349 151.868 168.695 150.665 168.695Z" fill="#262626"/>
<path d="M93.6652 155.578L92.3088 155.098L92.5197 154.48C95.6542 145.326 96.3108 143.423 104.808 141.822C106.23 141.552 107.675 141.43 109.122 141.458C111.37 141.458 111.72 141.458 114.61 136.225C120.03 126.395 121.358 111.873 122.532 99.0616C122.935 94.6522 123.318 90.4825 123.84 86.7394C124.88 79.3058 125.868 71.7379 126.822 64.4193C129.558 43.4606 132.386 21.7637 136.79 0.728271L138.2 1.0208C133.805 22.0275 130.982 43.6763 128.25 64.6063C127.291 71.9297 126.304 79.5022 125.264 86.9357C124.746 90.6501 124.363 94.8007 123.965 99.1957C122.776 112.136 121.434 126.821 115.87 136.919C112.793 142.498 112.093 142.887 109.117 142.896C107.761 142.869 106.405 142.983 105.072 143.236C97.4035 144.674 96.9914 145.848 93.8761 154.945L93.6652 155.578Z" fill="#262626"/>
<path d="M47.7359 155.515L46.3892 155.012C50.8129 143.14 55.3468 133.516 63.1111 125.119L63.806 124.362C68.5988 119.215 72.6918 114.777 76.0995 108.283C86.5669 88.3782 91.1919 65.2004 95.6587 42.7895C98.4769 28.67 101.41 14.0712 105.724 0.565186L107.089 1.00608C102.776 14.4258 99.8716 28.991 97.063 43.0722C92.577 65.5981 87.9328 88.8622 77.3695 108.953C73.8708 115.601 69.7011 120.116 64.8604 125.34L64.1607 126.092C56.5642 134.317 52.0973 143.802 47.7359 155.515Z" fill="#262626"/>
</svg>
