<svg width="238" height="238" viewBox="0 0 238 238" fill="none" xmlns="http://www.w3.org/2000/svg">
<mask id="mask0_143_26167" style="mask-type:luminance" maskUnits="userSpaceOnUse" x="2" y="2" width="234" height="234">
<path d="M5.36116 146.7C4.39266 143.05 3.67352 139.338 3.20874 135.591C2.91485 132.796 2.46368 129.078 2.24016 126.279C1.99596 122.572 1.93795 118.855 2.06632 115.141C2.18177 111.359 2.48845 107.585 2.98522 103.834C3.75927 98.5218 5.11281 91.4582 6.66504 86.3158C7.67088 82.9745 9.16928 78.5609 10.4773 75.3231C11.45 72.9175 12.9402 69.7874 14.0122 67.4232C15.5769 63.9618 18.1763 59.5937 20.2211 56.389C22.9949 52.0858 26.019 47.9493 29.2779 44.001C32.1754 40.5354 36.4264 36.2707 39.626 33.1033C19.7576 51.5074 11.301 81.7615 19.7576 116.363C33.8559 174.184 89.7112 222.241 144.54 223.711C89.7195 222.241 33.8559 174.184 19.7576 116.363C11.3217 81.7615 19.7576 51.5074 39.626 33.1033C41.5467 31.356 44.1792 29.0953 46.1909 27.464C47.8466 26.1266 50.1108 24.4168 51.8659 23.212C54.5026 21.3985 58.0996 19.0922 60.8646 17.4858C63.9981 15.6681 66.7465 14.3349 69.168 13.1632C69.6647 12.9231 72.3511 11.6394 76.6187 9.96671C79.1726 8.96473 82.2854 7.89653 83.5851 7.50733C84.5992 7.1968 85.9445 6.76621 86.971 6.48881C87.9975 6.2114 89.3428 5.83464 90.3693 5.57379C91.3959 5.31295 92.7577 5.00656 93.7842 4.74571C95.3903 4.36479 99.1073 3.66507 100.862 3.40837C103.975 2.95292 105.689 2.70448 108.561 2.4602C110.548 2.29044 113.268 2.04602 117.395 2.00875C120.06 1.97563 123.624 2.03361 126.29 2.23235C129.75 2.48906 134.361 2.9695 137.785 3.52845C141.357 4.11225 146.063 5.18458 149.577 6.07477C151.755 6.61716 154.594 7.58189 156.734 8.26506C161.002 9.62725 166.453 12.1197 170.526 13.9787C173.974 15.548 178.341 18.1192 181.545 20.1439C187.162 23.6956 192.466 27.7209 197.398 32.1759C199.849 34.3828 203.011 37.4507 205.205 39.9101C206.985 41.9058 209.344 44.5805 210.975 46.6963C212.975 49.2882 215.582 52.8035 217.312 55.5858C218.761 57.9127 220.678 61.0305 221.957 63.4526C223.501 66.3799 225.417 70.3629 226.721 73.3896C228.952 78.5941 231.208 85.8357 232.64 91.3134C233.468 94.5015 234.246 98.8448 234.747 102.107C235.161 104.881 235.509 108.62 235.74 111.419C235.994 115.126 236.062 118.843 235.943 122.557C235.865 125.298 235.571 128.941 235.314 131.666C235.004 135.015 234.13 139.425 233.567 142.741C232.836 146.607 231.842 150.418 230.591 154.148C228.745 159.649 226.588 165.04 224.13 170.296C222.474 173.716 219.933 178.084 217.971 181.33C216.692 183.446 214.754 186.125 213.326 188.149C210.366 192.195 207.145 196.043 203.682 199.668C202.142 201.287 200.027 203.394 198.375 204.897C196.463 206.653 193.822 208.918 191.81 210.541C187.18 214.234 182.275 217.569 177.137 220.515C172.073 223.415 166.801 225.933 161.362 228.046C157.223 229.632 154.698 230.41 154.425 230.493C153.41 230.8 152.065 231.234 151.039 231.512C150.012 231.789 148.667 232.166 147.644 232.427C146.622 232.688 145.252 232.994 144.225 233.255C143.72 233.375 140.471 234.083 137.147 234.592C135.752 234.812 133.153 235.213 129.448 235.54C123.643 236.056 117.807 236.138 111.989 235.785C108.532 235.578 103.946 234.985 100.515 234.518C98.7389 234.277 96.3754 233.814 94.6369 233.425C92.7701 233.011 90.2824 232.435 88.428 231.93C86.3377 231.354 83.552 230.568 81.5154 229.818C79.4789 229.069 76.627 228.112 74.5946 227.226C71.2832 225.798 66.9038 223.869 63.7663 222.117C61.6221 220.925 58.7495 219.335 56.6881 218.002C53.8444 216.155 50.0653 213.633 47.4286 211.53C42.9203 207.906 38.6157 204.036 34.5347 199.937C31.904 197.295 29.4522 194.48 27.1958 191.511C25.2628 188.866 22.5722 185.412 20.8338 182.638C19.3809 180.316 17.4892 177.185 16.1771 174.772C14.341 171.475 12.7058 168.071 11.2803 164.578C9.00843 158.722 7.03288 152.755 5.36116 146.7Z" fill="white"/>
</mask>
<g mask="url(#mask0_143_26167)">
<path d="M144.519 223.711C89.6988 222.241 33.8352 174.184 19.7368 116.363C-11.3698 145.147 7.85299 169.675 62.6693 171.144C76.7677 228.965 113.409 252.5 144.519 223.711Z" stroke="#262626" stroke-width="3" stroke-miterlimit="10"/>
<path d="M90.9365 208.077C75.2363 222.606 84.9346 234.99 112.606 235.727" stroke="#262626" stroke-width="3" stroke-miterlimit="10"/>
<path d="M46.17 169.563C19.3103 194.405 35.9088 215.6 83.2413 216.867" stroke="#262626" stroke-width="3" stroke-miterlimit="10"/>
<path d="M144.519 223.711C81.4824 236.96 18.9546 200.852 4.86035 143.031" stroke="#262626" stroke-width="3" stroke-miterlimit="10"/>
<path d="M144.519 223.711C89.9886 247.829 34.3568 220.506 20.2626 162.686" stroke="#262626" stroke-width="3" stroke-miterlimit="10"/>
<path d="M144.519 223.711C113.409 252.499 76.7678 228.965 62.6694 171.128C117.49 172.598 187.146 150.451 218.256 121.666C232.351 179.5 199.34 225.181 144.519 223.711Z" stroke="#262626" stroke-width="3" stroke-miterlimit="10"/>
<path d="M112.605 235.726C140.272 236.468 175.431 225.289 191.132 210.76" stroke="#262626" stroke-width="3" stroke-miterlimit="10"/>
<path d="M83.2415 216.867C130.578 218.138 190.726 199.014 217.586 174.159" stroke="#262626" stroke-width="3" stroke-miterlimit="10"/>
<path d="M144.519 223.711C145.326 249.311 134.556 223.189 120.458 165.373" stroke="#262626" stroke-width="3" stroke-miterlimit="10"/>
<path d="M144.519 223.711C176.151 239.511 190.37 205.448 176.276 147.627" stroke="#262626" stroke-width="3" stroke-miterlimit="10"/>
<path d="M144.519 223.711C199.34 225.181 232.35 179.5 218.256 121.683C249.363 92.8948 230.14 68.3671 175.324 66.8973C189.418 124.718 175.626 194.923 144.519 223.711Z" stroke="#262626" stroke-width="3" stroke-miterlimit="10"/>
<path d="M191.132 210.776C206.832 196.248 197.134 183.864 169.463 183.127" stroke="#262626" stroke-width="3" stroke-miterlimit="10"/>
<path d="M217.586 174.159C244.445 149.316 227.847 128.122 180.514 126.855" stroke="#262626" stroke-width="3" stroke-miterlimit="10"/>
<path d="M144.519 223.711C207.556 210.462 247.227 152.831 233.133 95.0105" stroke="#262626" stroke-width="3" stroke-miterlimit="10"/>
<path d="M144.519 223.711C199.05 199.593 231.825 133.177 217.73 75.3561" stroke="#262626" stroke-width="3" stroke-miterlimit="10"/>
<path d="M144.519 223.711C175.626 194.923 189.418 124.718 175.324 66.8973C120.503 65.4481 50.8433 87.5745 19.7367 116.375C33.835 174.184 89.6986 222.241 144.519 223.711Z" stroke="#262626" stroke-width="3" stroke-miterlimit="10"/>
<path d="M169.462 183.11C141.795 182.369 106.637 193.544 90.9363 208.077" stroke="#262626" stroke-width="3" stroke-miterlimit="10"/>
<path d="M180.514 126.854C133.178 125.583 73.0299 144.708 46.1702 169.563" stroke="#262626" stroke-width="3" stroke-miterlimit="10"/>
<path d="M144.519 223.711C143.712 198.111 131.629 130.494 117.535 72.6732" stroke="#262626" stroke-width="3" stroke-miterlimit="10"/>
<path d="M144.519 223.711C112.883 207.911 75.8074 148.236 61.7339 90.419" stroke="#262626" stroke-width="3" stroke-miterlimit="10"/>
<path d="M19.7368 116.375C5.6426 58.5585 38.6533 12.865 93.4738 14.3473C62.3672 43.1355 48.5751 113.34 62.6693 171.157C7.85299 169.675 -11.3698 145.147 19.7368 116.375Z" stroke="#262626" stroke-width="3" stroke-miterlimit="10"/>
<path d="M20.4075 63.8871C-6.45225 88.7295 10.1462 109.924 57.4788 111.191" stroke="#262626" stroke-width="3" stroke-miterlimit="10"/>
<path d="M46.8614 27.2859C31.1612 41.8146 40.8636 54.1985 68.5305 54.9355" stroke="#262626" stroke-width="3" stroke-miterlimit="10"/>
<path d="M4.86025 143.031C-9.21327 85.2143 30.4368 27.5963 93.4737 14.3346" stroke="#262626" stroke-width="3" stroke-miterlimit="10"/>
<path d="M20.2624 162.686C6.18893 104.869 38.943 38.4525 93.4737 14.3346" stroke="#262626" stroke-width="3" stroke-miterlimit="10"/>
<path d="M62.6693 171.144C48.575 113.328 62.3671 43.1229 93.4737 14.3346C148.294 15.8044 204.162 63.8663 218.256 121.683C187.145 150.467 117.49 172.614 62.6693 171.144Z" stroke="#262626" stroke-width="3" stroke-miterlimit="10"/>
<path d="M57.4786 111.191C104.815 112.458 164.963 93.3379 191.823 68.483" stroke="#262626" stroke-width="3" stroke-miterlimit="10"/>
<path d="M68.5305 54.9356C96.1974 55.6767 131.356 44.5018 147.057 29.969" stroke="#262626" stroke-width="3" stroke-miterlimit="10"/>
<path d="M120.458 165.373C106.363 107.556 94.2809 39.9182 93.4738 14.3346" stroke="#262626" stroke-width="3" stroke-miterlimit="10"/>
<path d="M176.276 147.627C162.202 89.8102 125.11 30.1344 93.4902 14.3346" stroke="#262626" stroke-width="3" stroke-miterlimit="10"/>
<path d="M218.256 121.683C204.183 63.8665 148.303 15.8046 93.4738 14.3347C124.585 -14.4618 161.209 9.08064 175.324 66.8973C230.14 68.3672 249.375 92.8949 218.256 121.683Z" stroke="#262626" stroke-width="3" stroke-miterlimit="10"/>
<path d="M191.839 68.4831C218.699 43.6406 202.105 22.4459 154.768 21.1789" stroke="#262626" stroke-width="3" stroke-miterlimit="10"/>
<path d="M147.057 29.9689C162.761 15.4402 153.059 3.05615 125.388 2.31915" stroke="#262626" stroke-width="3" stroke-miterlimit="10"/>
<path d="M233.133 95.0105C219.059 37.1938 156.515 1.07282 93.4738 14.3346" stroke="#262626" stroke-width="3" stroke-miterlimit="10"/>
<path d="M217.73 75.3561C203.636 17.5394 148.004 -9.77916 93.4738 14.3346" stroke="#262626" stroke-width="3" stroke-miterlimit="10"/>
<path d="M175.324 66.8973C161.209 9.08064 124.585 -14.4618 93.4738 14.3347C38.6533 12.8649 5.64264 58.5461 19.7369 116.375C50.8435 87.5745 120.503 65.4482 175.324 66.8973Z" stroke="#262626" stroke-width="3" stroke-miterlimit="10"/>
<path d="M154.751 21.1788C107.398 19.9036 47.2671 39.0322 20.4073 63.8871" stroke="#262626" stroke-width="3" stroke-miterlimit="10"/>
<path d="M125.388 2.31924C97.7207 1.57811 62.5617 12.7573 46.8615 27.286" stroke="#262626" stroke-width="3" stroke-miterlimit="10"/>
<path d="M117.535 72.6732C103.441 14.8566 92.6665 -11.2654 93.4737 14.3347" stroke="#262626" stroke-width="3" stroke-miterlimit="10"/>
<path d="M61.7173 90.4189C47.6438 32.5981 61.8415 -1.46515 93.4738 14.3347" stroke="#262626" stroke-width="3" stroke-miterlimit="10"/>
<path d="M39.626 33.1033C36.4264 36.2707 32.1754 40.5355 29.2779 44.001C26.019 47.9494 22.9949 52.0858 20.2211 56.3891C18.1763 59.5938 15.5769 63.9619 14.0122 67.4232C12.9402 69.7874 11.45 72.9176 10.4773 75.3232C9.16928 78.561 7.67088 82.9746 6.66504 86.3159C5.11282 91.4583 3.75927 98.5218 2.98522 103.834C2.48845 107.585 2.18177 111.359 2.06632 115.141C1.93795 118.855 1.99596 122.572 2.24016 126.279C2.46368 129.078 2.91485 132.796 3.20874 135.591C3.67352 139.338 4.39266 143.05 5.36116 146.7C7.03288 152.755 9.00843 158.722 11.2803 164.578C12.7058 168.071 14.341 171.476 16.1771 174.772C17.4892 177.186 19.3809 180.316 20.8338 182.638C22.5722 185.413 25.2628 188.866 27.1958 191.511C29.4522 194.48 31.904 197.295 34.5347 199.937C38.6157 204.036 42.9203 207.906 47.4286 211.53C50.0653 213.633 53.8444 216.155 56.6881 218.002C58.7495 219.335 61.6221 220.925 63.7663 222.117C66.9038 223.869 71.2832 225.798 74.5946 227.226C76.627 228.113 79.4789 229.069 81.5154 229.818C83.552 230.568 86.3377 231.354 88.428 231.93C90.2824 232.435 92.7701 233.011 94.6369 233.425C96.3754 233.814 98.7389 234.278 100.515 234.518C103.946 234.986 108.532 235.578 111.989 235.785C117.807 236.138 123.643 236.056 129.448 235.54C133.153 235.213 135.752 234.812 137.147 234.592C140.471 234.083 143.72 233.375 144.225 233.255C145.252 232.994 146.622 232.688 147.644 232.427C148.667 232.166 150.012 231.789 151.039 231.512C152.065 231.234 153.41 230.8 154.425 230.493C154.698 230.41 157.223 229.632 161.362 228.046C166.801 225.933 172.073 223.415 177.137 220.515C182.275 217.569 187.18 214.235 191.81 210.541C193.822 208.918 196.463 206.653 198.375 204.897C200.027 203.394 202.142 201.287 203.682 199.668C207.145 196.043 210.366 192.195 213.326 188.149C214.754 186.125 216.692 183.446 217.971 181.33C219.933 178.084 222.474 173.716 224.13 170.296C226.588 165.04 228.745 159.649 230.591 154.148C231.842 150.418 232.836 146.607 233.567 142.741C234.13 139.425 235.004 135.015 235.314 131.666C235.571 128.942 235.865 125.298 235.943 122.557C236.062 118.843 235.994 115.126 235.74 111.419C235.509 108.62 235.161 104.882 234.747 102.107C234.246 98.8448 233.468 94.5016 232.64 91.3135C231.208 85.8357 228.952 78.5941 226.721 73.3896C225.417 70.363 223.501 66.3799 221.957 63.4527C220.678 61.0305 218.761 57.9128 217.312 55.5859C215.582 52.8035 212.975 49.2882 210.975 46.6963C209.344 44.5806 206.985 41.9058 205.205 39.9101C203.011 37.4507 199.849 34.3828 197.398 32.176C192.466 27.721 187.162 23.6957 181.545 20.1439C178.341 18.1193 173.974 15.548 170.526 13.9788C166.453 12.1198 161.002 9.62731 156.734 8.26512C154.594 7.58195 151.755 6.61722 149.577 6.07483C146.063 5.18464 141.357 4.11231 137.785 3.52852C134.362 2.96956 129.75 2.48912 126.29 2.23241C123.624 2.03367 120.06 1.97569 117.395 2.00881C113.268 2.04608 110.548 2.2905 108.561 2.46026C105.689 2.70454 103.975 2.95298 100.862 3.40843C99.1073 3.66513 95.3903 4.36485 93.7842 4.74577C92.7577 5.00662 91.3959 5.31301 90.3693 5.57385C89.3428 5.8347 87.9975 6.21146 86.971 6.48887C85.9445 6.76628 84.5992 7.19686 83.5851 7.50739C82.2854 7.89659 79.1726 8.96479 76.6187 9.96677C72.3511 11.6395 69.6647 12.9231 69.168 13.1633C66.7465 14.335 63.9981 15.6682 60.8646 17.4858C58.0996 19.0923 54.5026 21.3985 51.8659 23.212C50.1108 24.4169 47.8466 26.1267 46.1909 27.464C44.1792 29.0954 41.5467 31.3561 39.626 33.1033ZM39.626 33.1033C19.7576 51.5075 11.301 81.7616 19.7576 116.363M39.626 33.1033C19.7576 51.5075 11.3217 81.7616 19.7576 116.363M19.7576 116.363C33.8559 174.184 89.7112 222.242 144.54 223.711C89.7195 222.242 33.8559 174.184 19.7576 116.363Z" stroke="#262626" stroke-width="3" stroke-miterlimit="10"/>
</g>
<path d="M39.626 33.1033C36.4264 36.2707 32.1754 40.5354 29.2779 44.001C26.019 47.9493 22.9949 52.0858 20.2211 56.389C18.1763 59.5937 15.5769 63.9618 14.0122 67.4232C12.9402 69.7874 11.45 72.9175 10.4773 75.3231C9.16928 78.5609 7.67088 82.9745 6.66504 86.3158C5.11282 91.4582 3.75927 98.5218 2.98522 103.834C2.48845 107.585 2.18177 111.359 2.06632 115.141C1.93795 118.855 1.99596 122.572 2.24016 126.279C2.46368 129.078 2.91485 132.796 3.20874 135.591C3.67352 139.338 4.39266 143.05 5.36116 146.7C7.03288 152.755 9.00843 158.722 11.2803 164.578C12.7058 168.071 14.341 171.475 16.1771 174.772C17.4892 177.185 19.3809 180.316 20.8338 182.638C22.5722 185.412 25.2628 188.866 27.1958 191.511C29.4522 194.48 31.904 197.295 34.5347 199.937C38.6157 204.036 42.9203 207.906 47.4286 211.53C50.0653 213.633 53.8444 216.155 56.6881 218.002C58.7495 219.335 61.6221 220.925 63.7663 222.117C66.9038 223.869 71.2832 225.798 74.5946 227.226C76.627 228.112 79.4789 229.069 81.5154 229.818C83.552 230.568 86.3377 231.354 88.428 231.93C90.2824 232.435 92.7701 233.011 94.6369 233.425C96.3754 233.814 98.7389 234.277 100.515 234.518C103.946 234.985 108.532 235.578 111.989 235.785C117.807 236.138 123.643 236.056 129.448 235.54C133.153 235.213 135.752 234.812 137.147 234.592C140.471 234.083 143.72 233.375 144.225 233.255C145.252 232.994 146.622 232.688 147.644 232.427C148.667 232.166 150.012 231.789 151.039 231.512C152.065 231.234 153.41 230.8 154.425 230.493C154.698 230.41 157.223 229.632 161.362 228.046C166.801 225.933 172.073 223.415 177.137 220.515C182.275 217.569 187.18 214.235 191.81 210.541C193.822 208.918 196.463 206.653 198.375 204.897C200.027 203.394 202.142 201.287 203.682 199.668C207.145 196.043 210.366 192.195 213.326 188.149C214.754 186.125 216.692 183.446 217.971 181.33C219.933 178.084 222.474 173.716 224.13 170.296C226.588 165.04 228.745 159.649 230.591 154.148C231.842 150.418 232.836 146.607 233.567 142.741C234.13 139.425 235.004 135.015 235.314 131.666C235.571 128.941 235.865 125.298 235.943 122.557C236.062 118.843 235.994 115.126 235.74 111.419C235.509 108.62 235.161 104.881 234.747 102.107C234.246 98.8448 233.468 94.5015 232.64 91.3134C231.208 85.8357 228.952 78.5941 226.721 73.3896C225.417 70.3629 223.501 66.3799 221.957 63.4526C220.678 61.0305 218.761 57.9127 217.312 55.5858C215.582 52.8035 212.975 49.2882 210.975 46.6963C209.344 44.5805 206.985 41.9058 205.205 39.9101C203.011 37.4507 199.849 34.3828 197.398 32.1759C192.466 27.7209 187.162 23.6956 181.545 20.1439C178.341 18.1192 173.974 15.548 170.526 13.9787C166.453 12.1197 161.002 9.62725 156.734 8.26506C154.594 7.58189 151.755 6.61716 149.577 6.07477C146.063 5.18458 141.357 4.11225 137.785 3.52845C134.362 2.9695 129.75 2.48906 126.29 2.23235C123.624 2.03361 120.06 1.97563 117.395 2.00875C113.268 2.04602 110.548 2.29044 108.561 2.4602C105.689 2.70448 103.975 2.95292 100.862 3.40837C99.1073 3.66507 95.3903 4.36479 93.7842 4.74571C92.7577 5.00656 91.3959 5.31295 90.3693 5.57379C89.3428 5.83464 87.9975 6.2114 86.971 6.48881C85.9445 6.76621 84.5992 7.1968 83.5851 7.50733C82.2854 7.89653 79.1726 8.96473 76.6187 9.96671C72.3511 11.6394 69.6647 12.9231 69.168 13.1632C66.7465 14.3349 63.9981 15.6681 60.8646 17.4858C58.0996 19.0922 54.5026 21.3985 51.8659 23.212C50.1108 24.4168 47.8466 26.1266 46.1909 27.464C44.1792 29.0953 41.5467 31.356 39.626 33.1033ZM39.626 33.1033C19.7576 51.5074 11.301 81.7615 19.7576 116.363M39.626 33.1033C19.7576 51.5074 11.3217 81.7615 19.7576 116.363M19.7576 116.363C33.8559 174.184 89.7112 222.241 144.54 223.711C89.7195 222.241 33.8559 174.184 19.7576 116.363Z" stroke="#262626" stroke-width="3" stroke-miterlimit="10"/>
</svg>
