<svg width="213" height="102" viewBox="0 0 213 102" fill="none" xmlns="http://www.w3.org/2000/svg">
<mask id="mask0_1_102" style="mask-type:luminance" maskUnits="userSpaceOnUse" x="0" y="54" width="213" height="48">
<path d="M213 54H0V102H213V54Z" fill="white"/>
</mask>
<g mask="url(#mask0_1_102)">
<path d="M24.4145 95.6076C25.0052 96.0009 25.6936 96.2079 26.3958 96.2034C27.449 96.2034 28.4177 95.5807 28.4177 94.4582C28.4177 93.7649 28.0309 93.2516 27.0476 92.7114C25.8561 92.0735 25.1914 91.3263 25.1914 90.3132C25.1914 88.6505 26.6315 87.5835 28.3494 87.5835C29.2629 87.5835 29.9423 87.8477 30.2609 88.0682L29.8448 89.0107C29.3581 88.7137 28.8021 88.5605 28.2373 88.568C27.0752 88.568 26.3828 89.3304 26.3828 90.0927C26.3828 90.8551 26.8525 91.2842 27.8359 91.8244C28.9866 92.4337 29.6091 93.1708 29.6091 94.3185C29.6091 95.9274 28.3494 97.2013 26.2431 97.2013C25.3019 97.1879 24.3869 96.8967 24 96.5501L24.4145 95.6076Z" fill="white"/>
<path d="M33.5278 97.2165C31.8521 97.2165 30.911 95.9677 30.911 94.4582C30.911 92.2401 32.4486 90.2038 34.6233 90.2038C36.4372 90.2038 37.2547 91.5753 37.2547 92.989C37.2547 95.0674 35.7919 97.2165 33.5424 97.2165H33.5278ZM33.6806 96.301C35.0378 96.301 36.0634 94.5541 36.0634 92.989C36.0634 92.2132 35.7025 91.1177 34.4982 91.1177C33.0581 91.1177 32.1024 92.878 32.1024 94.4161C32.1024 95.5117 32.7119 96.301 33.6677 96.301H33.6806Z" fill="white"/>
<path d="M38.2169 97.0634L39.3124 91.2556H38.4249L38.5875 90.3553H39.4863L39.5431 89.9951C39.7057 89.0662 40.0405 88.2079 40.6371 87.6676C41.082 87.2778 41.647 87.0658 42.2299 87.0702C42.5488 87.0506 42.8675 87.1125 43.1579 87.2503L42.9076 88.1658C42.6922 88.077 42.4616 88.0346 42.2299 88.0413C41.3148 88.0413 40.8727 88.9281 40.6777 90.0372L40.6224 90.3553H42.1177L41.9373 91.2556H40.455L39.3547 97.0634H38.2169Z" fill="white"/>
<path d="M45.0092 88.748L44.7053 90.3553H46.3111L46.1323 91.2556H44.5249L43.9154 94.5138C43.8305 94.8628 43.7841 95.2207 43.7772 95.5807C43.7772 95.9829 43.9706 96.2319 44.4143 96.2319C44.5958 96.2374 44.7771 96.2187 44.9539 96.1764L44.8987 97.0767C44.612 97.1683 44.3128 97.2104 44.0129 97.2013C43.0019 97.2013 42.6005 96.5922 42.6005 95.8988C42.6091 95.4788 42.6598 95.0609 42.7517 94.6517L43.4018 91.2556H42.4428L42.6053 90.3553H43.561L43.7967 89.1217L45.0092 88.748Z" fill="white"/>
<path d="M48.1315 90.3553L48.3673 94.125C48.4096 94.7248 48.4188 95.3265 48.3949 95.9274H48.4371C48.6491 95.3517 48.8944 94.7897 49.1718 94.2445L51.1514 90.3502H52.1624L52.5785 94.1755C52.6484 94.9109 52.689 95.4781 52.689 95.9224H52.7167C52.8971 95.3822 53.0775 94.8689 53.3538 94.2175L55.1692 90.3469H56.3314L53.0222 97.055H51.956L51.5122 93.4098C51.4457 92.8166 51.4131 92.2197 51.4147 91.6225H51.3822C51.1059 92.2739 50.9109 92.7719 50.6069 93.3677L48.6809 97.055H47.6147L46.9938 90.3553H48.1315Z" fill="white"/>
<path d="M60.5361 97.0634C60.5574 96.4837 60.6079 95.9058 60.6872 95.3316H60.6596C59.9266 96.7301 58.9985 97.2165 58.0591 97.2165C56.8678 97.2165 56.1346 96.2741 56.1346 94.9985C56.1346 92.6558 57.8511 90.2038 60.7735 90.2038C61.3817 90.2062 61.9871 90.2899 62.5743 90.4529L61.8823 93.9584C61.6838 94.9803 61.5912 96.0212 61.6053 97.0634H60.5361ZM61.284 91.2152C61.0225 91.1406 60.7517 91.1076 60.4808 91.1177C58.7483 91.1177 57.3211 92.9201 57.3211 94.7898C57.3211 95.5387 57.5844 96.2741 58.4719 96.2741C59.4276 96.2741 60.5637 95.0254 60.8953 93.2448L61.284 91.2152Z" fill="white"/>
<path d="M63.3187 97.0634L64.1316 92.74C64.2938 91.8666 64.3945 90.9796 64.4781 90.3553H65.4884C65.433 90.8265 65.3776 91.2977 65.295 91.8109H65.3353C65.7795 90.8955 66.4867 90.2038 67.3872 90.2038C67.496 90.2059 67.6048 90.2148 67.7125 90.2307L67.4909 91.3667C67.3831 91.3482 67.2744 91.3392 67.1656 91.3398C66.1824 91.3398 65.295 92.5447 65.0039 94.098L64.4499 97.0634H63.3187Z" fill="white"/>
<path d="M72.4741 96.6746C71.7851 97.0271 71.0256 97.2075 70.257 97.2014C68.4862 97.2014 67.7085 95.9963 67.7085 94.5087C67.7085 92.4892 69.2054 90.1988 71.366 90.1988C72.6403 90.1988 73.3323 90.9595 73.3323 91.9304C73.3323 93.6908 71.3529 94.1485 68.873 94.1065C68.8186 94.532 68.8659 94.9648 69.011 95.367C69.2739 95.9779 69.8158 96.269 70.5078 96.269C71.1354 96.2707 71.7528 96.1135 72.3089 95.8112L72.4741 96.6746ZM72.2253 91.949C72.2253 91.4088 71.8092 91.1075 71.1998 91.1075C70.1059 91.1075 69.289 92.1745 69.011 93.228C70.812 93.2549 72.2253 93.0058 72.2253 91.9658V91.949Z" fill="white"/>
<path d="M83.5644 87.2234L82.0837 94.9294C81.9537 95.635 81.8611 96.3474 81.8057 97.0633H80.752L80.9323 95.7321H80.9051C80.2957 96.6897 79.4425 97.2165 78.4816 97.2165C77.1922 97.2165 76.4871 96.1478 76.4871 94.7763C76.4871 92.3932 78.261 90.2038 80.6291 90.2038C81.0371 90.2006 81.442 90.2807 81.8198 90.4394L82.4151 87.2234H83.5644ZM81.6254 91.4088C81.297 91.2006 80.9152 91.0992 80.5314 91.1176C78.9258 91.1176 77.6788 92.8358 77.6788 94.6248C77.6788 95.4275 77.9548 96.274 78.9379 96.274C79.8253 96.274 80.889 95.2643 81.1832 93.7497L81.6254 91.4088Z" fill="white"/>
<path d="M88.5395 96.6746C87.8505 97.0273 87.092 97.2077 86.3244 97.2014C84.5506 97.2014 83.7749 95.9963 83.7749 94.5087C83.7749 92.4892 85.2708 90.1988 87.4324 90.1988C88.7067 90.1988 89.3987 90.9595 89.3987 91.9304C89.3987 93.6908 87.4173 94.1485 84.9394 94.1065C84.885 94.532 84.9323 94.9649 85.0774 95.367C85.3403 95.9779 85.8802 96.269 86.5722 96.269C87.1998 96.2709 87.8182 96.1137 88.3733 95.8112L88.5395 96.6746ZM88.2907 91.949C88.2907 91.4088 87.8746 91.1075 87.2662 91.1075C86.1713 91.1075 85.3534 92.1745 85.0774 93.228C86.8784 93.2549 88.2907 93.0058 88.2907 91.9658V91.949Z" fill="white"/>
<path d="M91.4768 90.3553L92.058 94.1805C92.1537 94.9428 92.2514 95.4696 92.2645 95.8298H92.3068C92.4599 95.4696 92.6321 95.0254 93.027 94.263L95.0638 90.3553H96.3229L92.5979 97.0633H91.4768L90.3123 90.3553H91.4768Z" fill="white"/>
<path d="M101.006 96.6746C100.317 97.0271 99.5573 97.2075 98.7887 97.2014C97.0159 97.2014 96.2403 95.9963 96.2403 94.5087C96.2403 92.4892 97.7351 90.1988 99.8968 90.1988C101.171 90.1988 101.864 90.9595 101.864 91.9304C101.864 93.6908 99.8827 94.1485 97.4037 94.1065C97.3493 94.532 97.3966 94.9649 97.5417 95.367C97.8056 95.9779 98.3445 96.269 99.0375 96.269C99.6651 96.2709 100.283 96.1137 100.839 95.8112L101.006 96.6746ZM100.755 91.949C100.755 91.4088 100.339 91.1075 99.7316 91.1075C98.6356 91.1075 97.8187 92.1745 97.5417 93.228C99.3427 93.2549 100.755 93.0058 100.755 91.9658V91.949Z" fill="white"/>
<path d="M102.458 97.0633L104.328 87.2234H105.478L103.608 97.0633H102.458Z" fill="white"/>
<path d="M108.331 97.2165C106.656 97.2165 105.713 95.9677 105.713 94.4582C105.713 92.2401 107.25 90.2038 109.425 90.2038C111.241 90.2038 112.057 91.5753 112.057 92.989C112.057 95.0674 110.593 97.2165 108.346 97.2165H108.331ZM108.484 96.301C109.841 96.301 110.866 94.5541 110.866 92.989C110.866 92.2132 110.506 91.1177 109.302 91.1177C107.859 91.1177 106.905 92.878 106.905 94.4161C106.905 95.5117 107.514 96.301 108.469 96.301H108.484Z" fill="white"/>
<path d="M112.25 99.8082L113.594 92.74C113.747 91.9355 113.885 91.0217 113.968 90.3418H115.021L114.841 91.6175H114.868C115.464 90.7305 116.351 90.2038 117.279 90.2038C118.719 90.2038 119.329 91.3953 119.329 92.6289C119.329 94.9985 117.638 97.2165 115.408 97.2165C114.702 97.2165 114.231 97.0634 113.968 96.9102H113.941L113.401 99.8082H112.25ZM114.134 95.9375C114.513 96.2034 114.965 96.3344 115.422 96.311C116.905 96.311 118.137 94.4683 118.137 92.708C118.137 92.0012 117.833 91.1564 116.85 91.1564C115.949 91.1564 114.826 92.1813 114.479 94.0661L114.134 95.9375Z" fill="white"/>
<path d="M120.116 97.0634L121.017 92.3091C121.157 91.5619 121.253 90.9106 121.322 90.3553H122.333L122.153 91.6175H122.195C122.818 90.675 123.658 90.2038 124.548 90.2038C125.575 90.2038 126.058 90.8551 126.114 91.6999C126.71 90.7305 127.576 90.2172 128.567 90.2038C129.342 90.2038 130.201 90.7087 130.201 91.9625C130.195 92.3443 130.158 92.7249 130.09 93.1001L129.342 97.0634H128.22L128.94 93.1926C129.001 92.9062 129.034 92.6141 129.038 92.3209C129.038 91.614 128.775 91.1564 128.027 91.1564C127.195 91.1564 126.198 92.1257 125.914 93.6235L125.277 97.06H124.169L124.918 93.1236C124.97 92.8544 124.999 92.5805 125.001 92.3058C125.001 91.7386 124.848 91.1564 124.002 91.1564C123.157 91.1564 122.119 92.2654 121.856 93.6924L121.233 97.0583L120.116 97.0634Z" fill="white"/>
<path d="M136.142 96.6746C135.453 97.0271 134.694 97.2075 133.925 97.2014C132.153 97.2014 131.377 95.9963 131.377 94.5087C131.377 92.4892 132.874 90.1988 135.034 90.1988C136.309 90.1988 137.001 90.9595 137.001 91.9304C137.001 93.6908 135.021 94.1485 132.54 94.1065C132.487 94.532 132.534 94.9648 132.678 95.367C132.942 95.9779 133.491 96.269 134.176 96.269C134.803 96.2707 135.421 96.1135 135.976 95.8112L136.142 96.6746ZM135.901 91.949C135.901 91.4088 135.486 91.1075 134.876 91.1075C133.782 91.1075 132.964 92.1745 132.687 93.228C134.487 93.2549 135.901 93.0058 135.901 91.9658V91.949Z" fill="white"/>
<path d="M137.596 97.0634L138.483 92.3091C138.634 91.5619 138.731 90.9106 138.808 90.3553H139.846L139.666 91.673H139.694C140.304 90.7305 141.204 90.2038 142.187 90.2038C142.977 90.2038 143.877 90.6599 143.877 92.055C143.867 92.4184 143.825 92.7799 143.753 93.1354L143.004 97.0583H141.867L142.601 93.1775C142.651 92.8941 142.678 92.6071 142.685 92.3192C142.685 91.6461 142.421 91.1547 141.631 91.1547C140.818 91.1547 139.652 92.1375 139.346 93.8019L138.736 97.0583L137.596 97.0634Z" fill="white"/>
<path d="M147.942 88.748L147.637 90.3553H149.244L149.064 91.2556H147.458L146.849 94.5138C146.763 94.8628 146.716 95.2207 146.709 95.5807C146.709 95.9829 146.903 96.2319 147.346 96.2319C147.528 96.2373 147.709 96.2186 147.888 96.1764L147.832 97.0767C147.545 97.1685 147.245 97.2105 146.945 97.2013C145.933 97.2013 145.532 96.5922 145.532 95.8988C145.541 95.4787 145.592 95.0606 145.685 94.6517L146.335 91.2556H145.379L145.542 90.3553H146.497L146.731 89.1217L147.942 88.748Z" fill="white"/>
<path d="M156.447 96.7857C155.837 97.0712 155.175 97.2132 154.508 97.2013C152.775 97.2013 151.931 96.0385 151.931 94.6097C151.931 92.3243 153.62 90.2038 156.031 90.2038C156.513 90.1968 156.99 90.3008 157.43 90.5085L157.104 91.4088C156.748 91.2406 156.359 91.1555 155.967 91.1597C154.221 91.1597 153.127 92.878 153.127 94.4582C153.127 95.5521 153.695 96.259 154.789 96.259C155.326 96.2569 155.857 96.1292 156.341 95.8853L156.447 96.7857Z" fill="white"/>
<path d="M162.402 96.6746C161.713 97.0269 160.954 97.2073 160.187 97.2014C158.413 97.2014 157.637 95.9963 157.637 94.5087C157.637 92.4892 159.133 90.1988 161.293 90.1988C162.567 90.1988 163.26 90.9595 163.26 91.9304C163.26 93.6908 161.28 94.1485 158.8 94.1065C158.746 94.5321 158.794 94.9651 158.94 95.367C159.202 95.9779 159.742 96.269 160.434 96.269C161.062 96.2707 161.68 96.1135 162.235 95.8112L162.402 96.6746ZM162.153 91.949C162.153 91.4088 161.737 91.1075 161.127 91.1075C160.034 91.1075 159.216 92.1745 158.94 93.228C160.739 93.2549 162.153 93.0058 162.153 91.9658V91.949Z" fill="white"/>
<path d="M163.856 97.0634L164.742 92.3091C164.895 91.5619 164.99 90.9106 165.067 90.3553H166.106L165.925 91.673H165.952C166.563 90.7305 167.462 90.2038 168.447 90.2038C169.236 90.2038 170.137 90.6599 170.137 92.055C170.127 92.4184 170.084 92.7799 170.012 93.1354L169.263 97.0583H168.126L168.86 93.1775C168.911 92.8942 168.938 92.6071 168.943 92.3192C168.943 91.6461 168.68 91.1547 167.89 91.1547C167.078 91.1547 165.911 92.1375 165.605 93.8019L164.993 97.0634H163.856Z" fill="white"/>
<path d="M174.201 88.748L173.898 90.3553H175.504L175.323 91.2556H173.717L173.107 94.5138C173.023 94.8628 172.976 95.2207 172.969 95.5807C172.969 95.9829 173.163 96.2319 173.607 96.2319C173.788 96.2373 173.97 96.2186 174.146 96.1764L174.091 97.0767C173.804 97.1683 173.505 97.2104 173.205 97.2013C172.193 97.2013 171.791 96.5922 171.791 95.8988C171.8 95.4787 171.851 95.0606 171.944 94.6517L172.594 91.2556H171.639L171.801 90.3553H172.757L172.992 89.1217L174.201 88.748Z" fill="white"/>
<path d="M180.352 96.6746C179.663 97.0271 178.903 97.2075 178.135 97.2014C176.362 97.2014 175.586 95.9963 175.586 94.5087C175.586 92.4892 177.082 90.1988 179.244 90.1988C180.518 90.1988 181.21 90.9595 181.21 91.9304C181.21 93.6908 179.229 94.1485 176.75 94.1065C176.695 94.532 176.743 94.9649 176.889 95.367C177.152 95.9779 177.691 96.269 178.384 96.269C179.011 96.2709 179.63 96.1137 180.185 95.8112L180.352 96.6746ZM180.11 91.949C180.11 91.4088 179.695 91.1075 179.086 91.1075C177.99 91.1075 177.174 92.1745 176.897 93.228C178.697 93.2549 180.11 93.0058 180.11 91.9658V91.949Z" fill="white"/>
<path d="M181.79 97.0634L182.603 92.74C182.765 91.8666 182.866 90.9796 182.95 90.3553H183.96C183.906 90.8265 183.85 91.2977 183.767 91.8109H183.809C184.251 90.8955 184.958 90.2038 185.859 90.2038C185.967 90.2058 186.076 90.2147 186.184 90.2307L185.962 91.3667C185.856 91.3482 185.747 91.3392 185.638 91.3398C184.662 91.3398 183.769 92.5447 183.477 94.098L182.923 97.0634H181.79Z" fill="white"/>
<path d="M18.9971 62.598C18.9971 67.7645 15.3855 70.8931 9.40749 70.8931H3.73015V78.0926H0.44696V54.3029H9.41081C15.3855 54.3029 18.9971 57.4315 18.9971 62.598ZM15.7139 62.598C15.7139 59.1985 13.5147 57.2615 9.31159 57.2615H3.73015V67.9345H9.31159C13.5147 67.9345 15.7139 65.9975 15.7139 62.598Z" fill="white"/>
<path d="M39.9107 60.0854V78.0926H38.4018C38.2074 78.0928 38.015 78.0533 37.8357 77.9764C37.6563 77.8995 37.4932 77.7867 37.3558 77.6445C37.2184 77.5023 37.1094 77.3333 37.0352 77.1475C36.961 76.9615 36.9229 76.7623 36.9231 76.5611V75.3729C35.6423 77.2426 33.4757 78.2961 31.0133 78.2961C26.516 78.2961 23.5286 75.7466 23.5286 70.4438V60.0854H26.6802V70.0802C26.6802 73.6144 28.3867 75.3831 31.3741 75.3831C34.6574 75.3831 36.7589 73.2761 36.7589 69.4003V60.0854H39.9107Z" fill="white"/>
<path d="M62.4329 67.7308V78.0926H59.2811V68.1045C59.2811 64.5703 57.5747 62.8353 54.5861 62.8353C51.2378 62.8353 49.0711 64.9103 49.0711 68.8197V78.0926H45.9193V60.0854H47.4604C47.8523 60.0854 48.229 60.2467 48.506 60.5339C48.783 60.8211 48.9391 61.2107 48.9391 61.6169V62.805C50.2204 60.9706 52.4516 59.9154 55.2096 59.9154C59.4453 59.9171 62.4329 62.428 62.4329 67.7308Z" fill="white"/>
<path d="M78.0602 77.0458C77.1093 77.8956 75.6648 78.3029 74.2526 78.3029C70.7401 78.3029 68.7376 76.2969 68.7376 72.6601V62.768H65.7822V60.0854H68.7376V54.2878H71.8975V60.0854H78.0249V62.7781H71.8975V72.539C71.8975 74.4776 72.8826 75.5682 74.6212 75.5682C75.5107 75.5785 76.378 75.2792 77.0841 74.7184L78.0602 77.0458Z" fill="white"/>
<path d="M79.6698 69.0907C79.6698 63.7205 83.5116 59.9121 88.7305 59.9121C93.9503 59.9121 97.7599 63.7205 97.7599 69.0907C97.7599 74.4608 93.9513 78.3029 88.7305 78.3029C83.5106 78.3029 79.6698 74.4625 79.6698 69.0907ZM94.5758 69.0907C94.5758 65.2503 92.0807 62.768 88.7244 62.768C85.3681 62.768 82.8468 65.2503 82.8468 69.0907C82.8468 72.9311 85.3761 75.4487 88.7244 75.4487C92.0727 75.4487 94.5758 72.9328 94.5758 69.0907Z" fill="white"/>
<path d="M189.164 57.0175C189.164 56.9703 189.164 56.9182 189.153 56.8677C189.153 56.9182 189.158 56.9687 189.164 57.0175Z" fill="white"/>
<path d="M121.47 62.768C121.47 68.0035 117.732 71.233 111.687 71.233H106.499V78.0926H102.231V54.3029H111.687C117.723 54.3029 121.47 57.4988 121.47 62.768ZM117.17 62.768C117.17 59.7758 115.233 58.0424 111.49 58.0424H106.499V67.4902H111.49C115.225 67.4902 117.164 65.7602 117.164 62.768H117.17Z" fill="#D51F36"/>
<path d="M141.919 59.9457L133.71 79.5618C132.102 83.6747 129.87 84.9319 126.947 84.9319C125.209 84.9319 123.372 84.321 122.253 83.2658L123.895 80.139C124.712 80.9388 125.791 81.3881 126.915 81.3961C128.36 81.3961 129.214 80.6826 130.004 78.8818L130.299 78.1683L122.648 59.9457H126.917L132.43 73.3804L137.979 59.9525L141.919 59.9457Z" fill="#D51F36"/>
<path d="M173.806 67.6972V78.0926H169.694V68.2408C169.694 65.0113 168.25 63.4479 165.755 63.4479C163.063 63.4479 161.191 65.284 161.191 68.887V78.0926H157.087V68.2408C157.087 65.0113 155.643 63.4479 153.148 63.4479C150.423 63.4479 148.584 65.284 148.584 68.887V78.0926H144.48V59.9457H146.908C147.301 59.9462 147.677 60.1077 147.954 60.3948C148.232 60.6819 148.387 61.0711 148.388 61.4772V62.2581C149.699 60.6256 151.736 59.7337 154.131 59.7337C156.693 59.7337 158.827 60.7199 160.041 62.7629C161.453 60.8932 163.817 59.7337 166.608 59.7337C170.843 59.7488 173.806 62.2244 173.806 67.6972Z" fill="#D51F36"/>
<path d="M197.634 76.2969L199.211 73.069C200.753 74.1225 203.111 74.8698 205.317 74.8698C207.917 74.8698 208.994 74.1225 208.994 72.8638C208.994 69.3969 198.159 72.6601 198.159 65.4202C198.159 61.9854 201.148 59.7421 205.874 59.7421C208.205 59.7421 210.866 60.321 212.441 61.3055L210.865 64.5351C209.341 63.6131 207.604 63.1432 205.84 63.1769C203.345 63.1769 202.163 64.0184 202.163 65.2149C202.163 68.887 212.998 65.6238 212.998 72.7291C212.998 76.1286 209.977 78.3366 205.052 78.3366C202.131 78.3366 199.211 77.453 197.634 76.2969Z" fill="#D51F36"/>
<path d="M190.858 72.2882C190.012 73.6345 188.571 74.4962 186.725 74.6897C184.124 74.407 182.327 72.7847 181.879 70.3815H195.635C195.667 69.9742 195.702 69.4642 195.702 69.1243C195.702 63.4479 191.964 59.7421 186.836 59.7421C181.617 59.7421 177.776 63.6128 177.776 69.0217C177.776 74.2016 181.273 78.0084 186.738 78.3164C189.89 78.1379 192.388 76.7933 193.935 74.6931C194.471 73.9652 194.89 73.1534 195.178 72.2882H190.858ZM186.833 63.1416C189.525 63.1416 191.463 64.9423 191.791 67.5609H181.842C182.237 64.9086 184.174 63.1416 186.833 63.1416Z" fill="#D51F36"/>
</g>
<path d="M128.057 16.7375V44.0372H104.967V37.7474H121.764V16.7375H128.057Z" fill="white"/>
<path d="M84 22.9198V0.0020752H111.306V6.29196H90.2929V22.9198H84Z" fill="white"/>
<path d="M100.783 44.0388V27.269H84V33.5589H94.4898V44.0388H100.783Z" fill="#D51F36"/>
<path d="M128.065 14.6425V0H113.407V6.28988H121.772V14.6425H128.065Z" fill="#D51F36"/>
<path d="M105.87 33.6041H104.97V27.2642H106.035C107.432 27.2642 108.772 26.7094 109.76 25.7219C110.748 24.7344 111.303 23.395 111.303 21.9984C111.302 20.6023 110.747 19.2636 109.759 18.2765C108.771 17.2894 107.432 16.7347 106.035 16.7343H100.775V23.0742H94.4172V10.4202H106.019C107.55 10.4229 109.066 10.7282 110.479 11.3186C111.892 11.9089 113.174 12.7726 114.252 13.8601C115.329 14.9475 116.181 16.2371 116.759 17.6549C117.336 19.0726 117.627 20.5904 117.615 22.121C117.556 28.5093 112.255 33.6041 105.87 33.6041Z" fill="#D51F36"/>
</svg>
